<?xml version="1.0" encoding="UTF-8"?>
<!DOCTYPE svg PUBLIC "-//W3C//DTD SVG 1.1//EN" "http://www.w3.org/Graphics/SVG/1.1/DTD/svg11.dtd">
<svg xmlns="http://www.w3.org/2000/svg" version="1.1" width="666px" height="375px" style="shape-rendering:geometricPrecision; text-rendering:geometricPrecision; image-rendering:optimizeQuality; fill-rule:evenodd; clip-rule:evenodd" xmlns:xlink="http://www.w3.org/1999/xlink">
<g><path style="opacity:0.42" fill="#1d2d4f" d="M 325.5,44.5 C 324.518,43.8592 323.518,43.1925 322.5,42.5C 320.493,44.5332 318.493,46.5332 316.5,48.5C 317.52,45.1397 319.52,42.473 322.5,40.5C 324.288,41.2826 325.288,42.6159 325.5,44.5 Z"/></g>
<g><path style="opacity:1" fill="#0163f8" d="M 325.5,44.5 C 326.338,44.8417 326.672,45.5084 326.5,46.5C 327.08,48.7488 328.413,50.4154 330.5,51.5C 330.427,53.0269 331.094,54.0269 332.5,54.5C 332.738,56.4044 333.738,57.7377 335.5,58.5C 335.738,60.4044 336.738,61.7377 338.5,62.5C 338.427,64.0269 339.094,65.0269 340.5,65.5C 340.738,67.4044 341.738,68.7377 343.5,69.5C 343.738,71.4044 344.738,72.7377 346.5,73.5C 346.738,75.4044 347.738,76.7377 349.5,77.5C 349.427,79.0269 350.094,80.0269 351.5,80.5C 351.427,82.0269 352.094,83.0269 353.5,83.5C 353.738,85.4044 354.738,86.7377 356.5,87.5C 356.738,89.4044 357.738,90.7377 359.5,91.5C 359.738,93.4044 360.738,94.7377 362.5,95.5C 362.738,97.4044 363.738,98.7377 365.5,99.5C 365.738,101.404 366.738,102.738 368.5,103.5C 368.427,105.027 369.094,106.027 370.5,106.5C 371.08,108.749 372.413,110.415 374.5,111.5C 375.338,111.842 375.672,112.508 375.5,113.5C 376.419,116.089 378.086,118.089 380.5,119.5C 381.338,119.842 381.672,120.508 381.5,121.5C 381.738,123.404 382.738,124.738 384.5,125.5C 384.427,127.027 385.094,128.027 386.5,128.5C 387.08,130.749 388.413,132.415 390.5,133.5C 390.427,135.027 391.094,136.027 392.5,136.5C 392.427,138.027 393.094,139.027 394.5,139.5C 395.08,141.749 396.413,143.415 398.5,144.5C 398.427,146.027 399.094,147.027 400.5,147.5C 400.427,149.027 401.094,150.027 402.5,150.5C 403.08,152.749 404.413,154.415 406.5,155.5C 406.427,157.027 407.094,158.027 408.5,158.5C 408.738,160.404 409.738,161.738 411.5,162.5C 411.738,164.404 412.738,165.738 414.5,166.5C 414.738,168.404 415.738,169.738 417.5,170.5C 417.427,172.027 418.094,173.027 419.5,173.5C 420.419,176.089 422.086,178.089 424.5,179.5C 425.338,179.842 425.672,180.508 425.5,181.5C 425.738,183.404 426.738,184.738 428.5,185.5C 428.427,187.027 429.094,188.027 430.5,188.5C 431.08,190.749 432.413,192.415 434.5,193.5C 434.427,195.027 435.094,196.027 436.5,196.5C 436.427,198.027 437.094,199.027 438.5,199.5C 439.08,201.749 440.413,203.415 442.5,204.5C 442.427,206.027 443.094,207.027 444.5,207.5C 444.738,209.404 445.738,210.738 447.5,211.5C 447.738,213.404 448.738,214.738 450.5,215.5C 450.427,217.027 451.094,218.027 452.5,218.5C 452.738,220.404 453.738,221.738 455.5,222.5C 455.738,224.404 456.738,225.738 458.5,226.5C 458.427,228.027 459.094,229.027 460.5,229.5C 460.738,231.404 461.738,232.738 463.5,233.5C 464.08,235.749 465.413,237.415 467.5,238.5C 467.427,240.027 468.094,241.027 469.5,241.5C 469.738,243.404 470.738,244.738 472.5,245.5C 472.738,247.404 473.738,248.738 475.5,249.5C 475.738,251.404 476.738,252.738 478.5,253.5C 478.427,255.027 479.094,256.027 480.5,256.5C 480.738,258.404 481.738,259.738 483.5,260.5C 483.427,262.027 484.094,263.027 485.5,263.5C 485.414,264.496 485.748,265.329 486.5,266C 449.835,266.5 413.168,266.667 376.5,266.5C 375.504,251.676 375.171,236.676 375.5,221.5C 364.5,221.5 353.5,221.5 342.5,221.5C 342.5,236.833 342.5,252.167 342.5,267.5C 329.5,267.5 316.5,267.5 303.5,267.5C 303.5,252.167 303.5,236.833 303.5,221.5C 292.5,221.5 281.5,221.5 270.5,221.5C 269.504,236.658 269.17,251.991 269.5,267.5C 233.833,267.5 198.167,267.5 162.5,267.5C 162.664,264.183 163.664,261.183 165.5,258.5C 167.262,257.738 168.262,256.404 168.5,254.5C 169.906,254.027 170.573,253.027 170.5,251.5C 171.906,251.027 172.573,250.027 172.5,248.5C 175.471,246.557 177.471,243.891 178.5,240.5C 179.906,240.027 180.573,239.027 180.5,237.5C 183.933,234.399 186.6,230.732 188.5,226.5C 189.906,226.027 190.573,225.027 190.5,223.5C 192.262,222.738 193.262,221.404 193.5,219.5C 194.906,219.027 195.573,218.027 195.5,216.5C 197.262,215.738 198.262,214.404 198.5,212.5C 200.262,211.738 201.262,210.404 201.5,208.5C 203.262,207.738 204.262,206.404 204.5,204.5C 205.906,204.027 206.573,203.027 206.5,201.5C 209.323,200.008 210.99,197.674 211.5,194.5C 213.262,193.738 214.262,192.404 214.5,190.5C 216.9,188.704 218.567,186.37 219.5,183.5C 220.906,183.027 221.573,182.027 221.5,180.5C 222.906,180.027 223.573,179.027 223.5,177.5C 226.471,175.557 228.471,172.891 229.5,169.5C 230.906,169.027 231.573,168.027 231.5,166.5C 234.323,165.008 235.99,162.674 236.5,159.5C 238.262,158.738 239.262,157.404 239.5,155.5C 240.906,155.027 241.573,154.027 241.5,152.5C 243.587,151.415 244.92,149.749 245.5,147.5C 246.906,147.027 247.573,146.027 247.5,144.5C 249.262,143.738 250.262,142.404 250.5,140.5C 252.822,139.198 254.155,137.198 254.5,134.5C 256.262,133.738 257.262,132.404 257.5,130.5C 260.471,128.557 262.471,125.891 263.5,122.5C 264.906,122.027 265.573,121.027 265.5,119.5C 268.815,116.875 271.149,113.542 272.5,109.5C 274.262,108.738 275.262,107.404 275.5,105.5C 277.262,104.738 278.262,103.404 278.5,101.5C 281.898,98.3733 284.565,94.7066 286.5,90.5C 287.906,90.0269 288.573,89.0269 288.5,87.5C 289.906,87.0269 290.573,86.0269 290.5,84.5C 292.262,83.7377 293.262,82.4044 293.5,80.5C 294.906,80.0269 295.573,79.0269 295.5,77.5C 297.262,76.7377 298.262,75.4044 298.5,73.5C 302.812,69.5462 306.145,64.8795 308.5,59.5C 311.323,58.0077 312.99,55.6743 313.5,52.5C 315.262,51.7377 316.262,50.4044 316.5,48.5C 318.493,46.5332 320.493,44.5332 322.5,42.5C 323.518,43.1925 324.518,43.8592 325.5,44.5 Z M 326.5,56.5 C 326.833,57.5 327.5,58.1667 328.5,58.5C 329.34,60.8525 330.674,62.8525 332.5,64.5C 333.529,67.8908 335.529,70.5574 338.5,72.5C 338.738,74.4044 339.738,75.7377 341.5,76.5C 344.345,81.5273 347.679,86.194 351.5,90.5C 353.738,95.0711 356.738,99.0711 360.5,102.5C 360.738,104.404 361.738,105.738 363.5,106.5C 365.529,111.224 368.529,115.224 372.5,118.5C 372.427,120.027 373.094,121.027 374.5,121.5C 374.427,123.027 375.094,124.027 376.5,124.5C 378.016,127.533 380.016,130.2 382.5,132.5C 382.738,134.404 383.738,135.738 385.5,136.5C 385.328,137.492 385.662,138.158 386.5,138.5C 387.124,140.754 388.457,142.421 390.5,143.5C 390.427,145.027 391.094,146.027 392.5,146.5C 392.738,148.404 393.738,149.738 395.5,150.5C 396.026,152.23 397.026,153.564 398.5,154.5C 399.026,156.23 400.026,157.564 401.5,158.5C 402.136,160.795 403.469,162.461 405.5,163.5C 405.427,165.027 406.094,166.027 407.5,166.5C 407.427,168.027 408.094,169.027 409.5,169.5C 409.738,171.404 410.738,172.738 412.5,173.5C 413.08,175.749 414.413,177.415 416.5,178.5C 416.427,180.027 417.094,181.027 418.5,181.5C 418.738,183.404 419.738,184.738 421.5,185.5C 421.427,187.027 422.094,188.027 423.5,188.5C 423.738,190.404 424.738,191.738 426.5,192.5C 426.427,194.027 427.094,195.027 428.5,195.5C 430.016,198.533 432.016,201.2 434.5,203.5C 434.427,205.027 435.094,206.027 436.5,206.5C 437.08,208.749 438.413,210.415 440.5,211.5C 440.427,213.027 441.094,214.027 442.5,214.5C 442.738,216.404 443.738,217.738 445.5,218.5C 445.427,220.027 446.094,221.027 447.5,221.5C 448.124,223.754 449.457,225.421 451.5,226.5C 451.427,228.027 452.094,229.027 453.5,229.5C 453.738,231.404 454.738,232.738 456.5,233.5C 457.026,235.23 458.026,236.564 459.5,237.5C 459.427,239.027 460.094,240.027 461.5,240.5C 461.427,242.027 462.094,243.027 463.5,243.5C 467.116,248.797 470.782,254.131 474.5,259.5C 444.174,260.5 413.841,260.833 383.5,260.5C 383.81,257.287 383.477,254.287 382.5,251.5C 383.525,229.759 383.525,208.093 382.5,186.5C 381.07,186.579 379.736,186.246 378.5,185.5C 340.373,186.161 302.373,186.827 264.5,187.5C 263.833,187.5 263.5,187.833 263.5,188.5C 262.502,212.328 262.169,236.328 262.5,260.5C 232.498,260.667 202.498,260.5 172.5,260C 173.758,258.259 174.758,256.426 175.5,254.5C 176.906,254.027 177.573,253.027 177.5,251.5C 179.262,250.738 180.262,249.404 180.5,247.5C 181.906,247.027 182.573,246.027 182.5,244.5C 183.167,244.5 183.5,244.167 183.5,243.5C 184.906,243.027 185.573,242.027 185.5,240.5C 186.906,240.027 187.573,239.027 187.5,237.5C 188.906,237.027 189.573,236.027 189.5,234.5C 190.906,234.027 191.573,233.027 191.5,231.5C 192.833,231.5 193.5,230.833 193.5,229.5C 194.906,229.027 195.573,228.027 195.5,226.5C 196.906,226.027 197.573,225.027 197.5,223.5C 198.906,223.027 199.573,222.027 199.5,220.5C 200.833,220.5 201.5,219.833 201.5,218.5C 202.906,218.027 203.573,217.027 203.5,215.5C 204.974,214.564 205.974,213.23 206.5,211.5C 207.906,211.027 208.573,210.027 208.5,208.5C 209.906,208.027 210.573,207.027 210.5,205.5C 211.167,205.5 211.5,205.167 211.5,204.5C 212.906,204.027 213.573,203.027 213.5,201.5C 214.167,201.5 214.5,201.167 214.5,200.5C 215.906,200.027 216.573,199.027 216.5,197.5C 217.167,197.5 217.5,197.167 217.5,196.5C 218.906,196.027 219.573,195.027 219.5,193.5C 220.906,193.027 221.573,192.027 221.5,190.5C 222.906,190.027 223.573,189.027 223.5,187.5C 224.906,187.027 225.573,186.027 225.5,184.5C 226.5,184.167 227.167,183.5 227.5,182.5C 229.326,180.853 230.66,178.853 231.5,176.5C 232.906,176.027 233.573,175.027 233.5,173.5C 235.262,172.738 236.262,171.404 236.5,169.5C 238.262,168.738 239.262,167.404 239.5,165.5C 240.906,165.027 241.573,164.027 241.5,162.5C 243.587,161.415 244.92,159.749 245.5,157.5C 247.326,155.853 248.66,153.853 249.5,151.5C 251.262,150.738 252.262,149.404 252.5,147.5C 253.167,147.5 253.5,147.167 253.5,146.5C 254.906,146.027 255.573,145.027 255.5,143.5C 256.906,143.027 257.573,142.027 257.5,140.5C 258.167,140.5 258.5,140.167 258.5,139.5C 260.326,137.853 261.66,135.853 262.5,133.5C 263.167,133.5 263.5,133.167 263.5,132.5C 264.906,132.027 265.573,131.027 265.5,129.5C 266.906,129.027 267.573,128.027 267.5,126.5C 269.262,125.738 270.262,124.404 270.5,122.5C 271.167,122.5 271.5,122.167 271.5,121.5C 272.906,121.027 273.573,120.027 273.5,118.5C 274.906,118.027 275.573,117.027 275.5,115.5C 276.338,115.158 276.672,114.492 276.5,113.5C 277.833,113.5 278.5,112.833 278.5,111.5C 280.262,110.738 281.262,109.404 281.5,107.5C 282.906,107.027 283.573,106.027 283.5,104.5C 285.547,102.45 287.214,100.117 288.5,97.5C 290.9,95.7036 292.567,93.3702 293.5,90.5C 294.167,90.5 294.5,90.1667 294.5,89.5C 295.906,89.0269 296.573,88.0269 296.5,86.5C 297.906,86.0269 298.573,85.0269 298.5,83.5C 300.9,81.7036 302.567,79.3702 303.5,76.5C 305.262,75.7377 306.262,74.4044 306.5,72.5C 307.906,72.0269 308.573,71.0269 308.5,69.5C 310.587,68.4154 311.92,66.7488 312.5,64.5C 313.906,64.0269 314.573,63.0269 314.5,61.5C 316.9,59.7036 318.567,57.3702 319.5,54.5C 320.482,53.8592 321.482,53.1925 322.5,52.5C 323.84,53.8665 325.173,55.1999 326.5,56.5 Z"/></g>
<g><path style="opacity:0.596" fill="#1c325b" d="M 326.5,46.5 C 328.587,47.5846 329.92,49.2512 330.5,51.5C 328.413,50.4154 327.08,48.7488 326.5,46.5 Z"/></g>
<g><path style="opacity:0.282" fill="#1c2c4b" d="M 316.5,48.5 C 316.262,50.4044 315.262,51.7377 313.5,52.5C 313.738,50.5956 314.738,49.2623 316.5,48.5 Z"/></g>
<g><path style="opacity:0.086" fill="#1b2d4e" d="M 326.5,56.5 C 325.173,55.1999 323.84,53.8665 322.5,52.5C 321.482,53.1925 320.482,53.8592 319.5,54.5C 319.712,52.6159 320.712,51.2826 322.5,50.5C 324.833,51.8322 326.166,53.8322 326.5,56.5 Z"/></g>
<g><path style="opacity:0.298" fill="#1c3159" d="M 330.5,51.5 C 331.906,51.9731 332.573,52.9731 332.5,54.5C 331.094,54.0269 330.427,53.0269 330.5,51.5 Z"/></g>
<g><path style="opacity:0.494" fill="#1e2f52" d="M 313.5,52.5 C 312.99,55.6743 311.323,58.0077 308.5,59.5C 309.786,56.883 311.453,54.5496 313.5,52.5 Z"/></g>
<g><path style="opacity:0.725" fill="#1d3971" d="M 326.5,56.5 C 327.833,56.5 328.5,57.1667 328.5,58.5C 327.5,58.1667 326.833,57.5 326.5,56.5 Z"/></g>
<g><path style="opacity:0.384" fill="#1c2f53" d="M 332.5,54.5 C 334.262,55.2623 335.262,56.5956 335.5,58.5C 333.738,57.7377 332.738,56.4044 332.5,54.5 Z"/></g>
<g><path style="opacity:0.092" fill="#1a2d4f" d="M 319.5,54.5 C 318.567,57.3702 316.9,59.7036 314.5,61.5C 315.433,58.6298 317.1,56.2964 319.5,54.5 Z"/></g>
<g><path style="opacity:0.51" fill="#1d3057" d="M 335.5,58.5 C 337.262,59.2623 338.262,60.5956 338.5,62.5C 336.738,61.7377 335.738,60.4044 335.5,58.5 Z"/></g>
<g><path style="opacity:0.051" fill="#1b2d50" d="M 314.5,61.5 C 314.573,63.0269 313.906,64.0269 312.5,64.5C 312.427,62.9731 313.094,61.9731 314.5,61.5 Z"/></g>
<g><path style="opacity:0.059" fill="#1b2c4c" d="M 328.5,58.5 C 330.822,59.8021 332.155,61.8021 332.5,64.5C 330.674,62.8525 329.34,60.8525 328.5,58.5 Z"/></g>
<g><path style="opacity:0.329" fill="#1c3055" d="M 338.5,62.5 C 339.906,62.9731 340.573,63.9731 340.5,65.5C 339.094,65.0269 338.427,64.0269 338.5,62.5 Z"/></g>
<g><path style="opacity:0.122" fill="#1a2f52" d="M 312.5,64.5 C 311.92,66.7488 310.587,68.4154 308.5,69.5C 309.08,67.2512 310.413,65.5846 312.5,64.5 Z"/></g>
<g><path style="opacity:0.075" fill="#1a2a45" d="M 332.5,64.5 C 334.984,66.8003 336.984,69.4669 338.5,72.5C 335.529,70.5574 333.529,67.8908 332.5,64.5 Z"/></g>
<g><path style="opacity:0.455" fill="#1c3463" d="M 340.5,65.5 C 342.262,66.2623 343.262,67.5956 343.5,69.5C 341.738,68.7377 340.738,67.4044 340.5,65.5 Z"/></g>
<g><path style="opacity:0.125" fill="#19315b" d="M 308.5,69.5 C 308.573,71.0269 307.906,72.0269 306.5,72.5C 306.427,70.9731 307.094,69.9731 308.5,69.5 Z"/></g>
<g><path style="opacity:0.467" fill="#1d2e4f" d="M 343.5,69.5 C 345.262,70.2623 346.262,71.5956 346.5,73.5C 344.738,72.7377 343.738,71.4044 343.5,69.5 Z"/></g>
<g><path style="opacity:0.471" fill="#1d3361" d="M 308.5,59.5 C 306.145,64.8795 302.812,69.5462 298.5,73.5C 301.345,68.4727 304.679,63.806 308.5,59.5 Z"/></g>
<g><path style="opacity:0.11" fill="#1a2f55" d="M 306.5,72.5 C 306.262,74.4044 305.262,75.7377 303.5,76.5C 303.738,74.5956 304.738,73.2623 306.5,72.5 Z"/></g>
<g><path style="opacity:0.09" fill="#1a2c4a" d="M 338.5,72.5 C 340.262,73.2623 341.262,74.5956 341.5,76.5C 339.738,75.7377 338.738,74.4044 338.5,72.5 Z"/></g>
<g><path style="opacity:0.38" fill="#1c3056" d="M 298.5,73.5 C 298.262,75.4044 297.262,76.7377 295.5,77.5C 295.738,75.5956 296.738,74.2623 298.5,73.5 Z"/></g>
<g><path style="opacity:0.455" fill="#1c335f" d="M 346.5,73.5 C 348.262,74.2623 349.262,75.5956 349.5,77.5C 347.738,76.7377 346.738,75.4044 346.5,73.5 Z"/></g>
<g><path style="opacity:0.231" fill="#1b2c48" d="M 295.5,77.5 C 295.573,79.0269 294.906,80.0269 293.5,80.5C 293.427,78.9731 294.094,77.9731 295.5,77.5 Z"/></g>
<g><path style="opacity:0.247" fill="#1c2d4d" d="M 349.5,77.5 C 350.906,77.9731 351.573,78.9731 351.5,80.5C 350.094,80.0269 349.427,79.0269 349.5,77.5 Z"/></g>
<g><path style="opacity:0.039" fill="#1b2b48" d="M 303.5,76.5 C 302.567,79.3702 300.9,81.7036 298.5,83.5C 299.433,80.6298 301.1,78.2964 303.5,76.5 Z"/></g>
<g><path style="opacity:0.278" fill="#1a2e50" d="M 341.5,76.5 C 345.812,80.4538 349.145,85.1205 351.5,90.5C 347.679,86.194 344.345,81.5273 341.5,76.5 Z"/></g>
<g><path style="opacity:0.482" fill="#1d3464" d="M 293.5,80.5 C 293.262,82.4044 292.262,83.7377 290.5,84.5C 290.738,82.5956 291.738,81.2623 293.5,80.5 Z"/></g>
<g><path style="opacity:0.333" fill="#1c3159" d="M 351.5,80.5 C 352.906,80.9731 353.573,81.9731 353.5,83.5C 352.094,83.0269 351.427,82.0269 351.5,80.5 Z"/></g>
<g><path style="opacity:0.035" fill="#1b2c4a" d="M 298.5,83.5 C 298.573,85.0269 297.906,86.0269 296.5,86.5C 296.427,84.9731 297.094,83.9731 298.5,83.5 Z"/></g>
<g><path style="opacity:0.812" fill="#1b3b78" d="M 353.5,83.5 C 355.262,84.2623 356.262,85.5956 356.5,87.5C 354.738,86.7377 353.738,85.4044 353.5,83.5 Z"/></g>
<g><path style="opacity:0.227" fill="#1d2d4f" d="M 290.5,84.5 C 290.573,86.0269 289.906,87.0269 288.5,87.5C 288.427,85.9731 289.094,84.9731 290.5,84.5 Z"/></g>
<g><path style="opacity:0.043" fill="#1b2d4d" d="M 296.5,86.5 C 296.573,88.0269 295.906,89.0269 294.5,89.5C 294.427,87.9731 295.094,86.9731 296.5,86.5 Z"/></g>
<g><path style="opacity:0.247" fill="#1c2d4d" d="M 288.5,87.5 C 288.573,89.0269 287.906,90.0269 286.5,90.5C 286.427,88.9731 287.094,87.9731 288.5,87.5 Z"/></g>
<g><path style="opacity:0.455" fill="#1e325c" d="M 356.5,87.5 C 358.262,88.2623 359.262,89.5956 359.5,91.5C 357.738,90.7377 356.738,89.4044 356.5,87.5 Z"/></g>
<g><path style="opacity:0.529" fill="#1c3568" d="M 359.5,91.5 C 361.262,92.2623 362.262,93.5956 362.5,95.5C 360.738,94.7377 359.738,93.4044 359.5,91.5 Z"/></g>
<g><path style="opacity:0.137" fill="#1e3057" d="M 286.5,90.5 C 284.565,94.7066 281.898,98.3733 278.5,101.5C 280.4,97.2679 283.067,93.6012 286.5,90.5 Z"/></g>
<g><path style="opacity:0.059" fill="#1b2d4f" d="M 293.5,90.5 C 292.567,93.3702 290.9,95.7036 288.5,97.5C 289.433,94.6298 291.1,92.2964 293.5,90.5 Z"/></g>
<g><path style="opacity:0.502" fill="#1b3669" d="M 362.5,95.5 C 364.262,96.2623 365.262,97.5956 365.5,99.5C 363.738,98.7377 362.738,97.4044 362.5,95.5 Z"/></g>
<g><path style="opacity:0.02" fill="#1a2c4c" d="M 351.5,90.5 C 355.262,93.9289 358.262,97.9289 360.5,102.5C 356.738,99.0711 353.738,95.0711 351.5,90.5 Z"/></g>
<g><path style="opacity:0.208" fill="#1c2940" d="M 327.5,102.5 C 326.518,101.859 325.518,101.193 324.5,100.5C 323.482,101.193 322.482,101.859 321.5,102.5C 322.072,99.7564 323.738,98.9231 326.5,100C 327.252,100.671 327.586,101.504 327.5,102.5 Z"/></g>
<g><path style="opacity:0.129" fill="#1c3058" d="M 288.5,97.5 C 287.214,100.117 285.547,102.45 283.5,104.5C 284.01,101.326 285.677,98.9923 288.5,97.5 Z"/></g>
<g><path style="opacity:1" fill="#0065fd" d="M 327.5,102.5 C 327.427,104.027 328.094,105.027 329.5,105.5C 329.738,107.404 330.738,108.738 332.5,109.5C 332.427,111.027 333.094,112.027 334.5,112.5C 334.427,114.027 335.094,115.027 336.5,115.5C 336.738,117.404 337.738,118.738 339.5,119.5C 339.427,121.027 340.094,122.027 341.5,122.5C 341.738,124.404 342.738,125.738 344.5,126.5C 344.738,128.404 345.738,129.738 347.5,130.5C 347.427,132.027 348.094,133.027 349.5,133.5C 349.427,135.027 350.094,136.027 351.5,136.5C 351.427,138.027 352.094,139.027 353.5,139.5C 353.738,141.404 354.738,142.738 356.5,143.5C 356.427,145.027 357.094,146.027 358.5,146.5C 358.738,148.404 359.738,149.738 361.5,150.5C 361.738,152.404 362.738,153.738 364.5,154.5C 364.427,156.027 365.094,157.027 366.5,157.5C 366.738,159.404 367.738,160.738 369.5,161.5C 369.738,163.404 370.738,164.738 372.5,165.5C 372.5,166.833 372.5,168.167 372.5,169.5C 339.833,169.5 307.167,169.5 274.5,169.5C 274.5,168.5 274.5,167.5 274.5,166.5C 277.471,164.557 279.471,161.891 280.5,158.5C 281.906,158.027 282.573,157.027 282.5,155.5C 284.262,154.738 285.262,153.404 285.5,151.5C 287.262,150.738 288.262,149.404 288.5,147.5C 289.906,147.027 290.573,146.027 290.5,144.5C 293.647,142.687 295.647,140.02 296.5,136.5C 297.906,136.027 298.573,135.027 298.5,133.5C 300.262,132.738 301.262,131.404 301.5,129.5C 303.587,128.415 304.92,126.749 305.5,124.5C 307.984,122.2 309.984,119.533 311.5,116.5C 312.906,116.027 313.573,115.027 313.5,113.5C 315.262,112.738 316.262,111.404 316.5,109.5C 319.323,108.008 320.99,105.674 321.5,102.5C 322.482,101.859 323.482,101.193 324.5,100.5C 325.518,101.193 326.518,101.859 327.5,102.5 Z"/></g>
<g><path style="opacity:0.478" fill="#1c3361" d="M 365.5,99.5 C 367.262,100.262 368.262,101.596 368.5,103.5C 366.738,102.738 365.738,101.404 365.5,99.5 Z"/></g>
<g><path style="opacity:0.38" fill="#1b315a" d="M 278.5,101.5 C 278.262,103.404 277.262,104.738 275.5,105.5C 275.738,103.596 276.738,102.262 278.5,101.5 Z"/></g>
<g><path style="opacity:0.031" fill="#1b2a45" d="M 360.5,102.5 C 362.262,103.262 363.262,104.596 363.5,106.5C 361.738,105.738 360.738,104.404 360.5,102.5 Z"/></g>
<g><path style="opacity:0.341" fill="#1a325c" d="M 327.5,102.5 C 328.906,102.973 329.573,103.973 329.5,105.5C 328.094,105.027 327.427,104.027 327.5,102.5 Z"/></g>
<g><path style="opacity:0.059" fill="#192c4c" d="M 283.5,104.5 C 283.573,106.027 282.906,107.027 281.5,107.5C 281.427,105.973 282.094,104.973 283.5,104.5 Z"/></g>
<g><path style="opacity:0.271" fill="#1c2c4c" d="M 368.5,103.5 C 369.906,103.973 370.573,104.973 370.5,106.5C 369.094,106.027 368.427,105.027 368.5,103.5 Z"/></g>
<g><path style="opacity:0.369" fill="#1d2f54" d="M 275.5,105.5 C 275.262,107.404 274.262,108.738 272.5,109.5C 272.738,107.596 273.738,106.262 275.5,105.5 Z"/></g>
<g><path style="opacity:0.51" fill="#1d3567" d="M 321.5,102.5 C 320.99,105.674 319.323,108.008 316.5,109.5C 317.786,106.883 319.453,104.55 321.5,102.5 Z"/></g>
<g><path style="opacity:0.463" fill="#1c3462" d="M 329.5,105.5 C 331.262,106.262 332.262,107.596 332.5,109.5C 330.738,108.738 329.738,107.404 329.5,105.5 Z"/></g>
<g><path style="opacity:0.059" fill="#1b2c49" d="M 281.5,107.5 C 281.262,109.404 280.262,110.738 278.5,111.5C 278.738,109.596 279.738,108.262 281.5,107.5 Z"/></g>
<g><path style="opacity:0.263" fill="#1d315a" d="M 370.5,106.5 C 372.587,107.585 373.92,109.251 374.5,111.5C 372.413,110.415 371.08,108.749 370.5,106.5 Z"/></g>
<g><path style="opacity:0.196" fill="#1d325c" d="M 272.5,109.5 C 271.149,113.542 268.815,116.875 265.5,119.5C 267.344,115.808 269.677,112.475 272.5,109.5 Z"/></g>
<g><path style="opacity:0.349" fill="#1d3159" d="M 316.5,109.5 C 316.262,111.404 315.262,112.738 313.5,113.5C 313.738,111.596 314.738,110.262 316.5,109.5 Z"/></g>
<g><path style="opacity:0.275" fill="#1d2f54" d="M 332.5,109.5 C 333.906,109.973 334.573,110.973 334.5,112.5C 333.094,112.027 332.427,111.027 332.5,109.5 Z"/></g>
<g><path style="opacity:0.02" fill="#1b2c4c" d="M 278.5,111.5 C 278.5,112.833 277.833,113.5 276.5,113.5C 276.833,112.5 277.5,111.833 278.5,111.5 Z"/></g>
<g><path style="opacity:0.043" fill="#1b2d4f" d="M 363.5,106.5 C 366.984,110.134 369.984,114.134 372.5,118.5C 368.529,115.224 365.529,111.224 363.5,106.5 Z"/></g>
<g><path style="opacity:0.294" fill="#1b2e51" d="M 334.5,112.5 C 335.906,112.973 336.573,113.973 336.5,115.5C 335.094,115.027 334.427,114.027 334.5,112.5 Z"/></g>
<g><path style="opacity:0.247" fill="#1c2c4d" d="M 313.5,113.5 C 313.573,115.027 312.906,116.027 311.5,116.5C 311.427,114.973 312.094,113.973 313.5,113.5 Z"/></g>
<g><path style="opacity:0.02" fill="#1b2a45" d="M 275.5,115.5 C 275.573,117.027 274.906,118.027 273.5,118.5C 273.427,116.973 274.094,115.973 275.5,115.5 Z"/></g>
<g><path style="opacity:0.784" fill="#1c3a75" d="M 336.5,115.5 C 338.262,116.262 339.262,117.596 339.5,119.5C 337.738,118.738 336.738,117.404 336.5,115.5 Z"/></g>
<g><path style="opacity:0.353" fill="#1e2e51" d="M 375.5,113.5 C 377.914,114.911 379.581,116.911 380.5,119.5C 378.086,118.089 376.419,116.089 375.5,113.5 Z"/></g>
<g><path style="opacity:0.078" fill="#1a2a44" d="M 273.5,118.5 C 273.573,120.027 272.906,121.027 271.5,121.5C 271.427,119.973 272.094,118.973 273.5,118.5 Z"/></g>
<g><path style="opacity:0.059" fill="#1c2c4b" d="M 372.5,118.5 C 373.906,118.973 374.573,119.973 374.5,121.5C 373.094,121.027 372.427,120.027 372.5,118.5 Z"/></g>
<g><path style="opacity:0.145" fill="#1e3057" d="M 311.5,116.5 C 309.984,119.533 307.984,122.2 305.5,124.5C 306.529,121.109 308.529,118.443 311.5,116.5 Z"/></g>
<g><path style="opacity:0.31" fill="#1c3057" d="M 265.5,119.5 C 265.573,121.027 264.906,122.027 263.5,122.5C 263.427,120.973 264.094,119.973 265.5,119.5 Z"/></g>
<g><path style="opacity:0.337" fill="#1c3159" d="M 339.5,119.5 C 340.906,119.973 341.573,120.973 341.5,122.5C 340.094,122.027 339.427,121.027 339.5,119.5 Z"/></g>
<g><path style="opacity:0.059" fill="#192d4e" d="M 374.5,121.5 C 375.906,121.973 376.573,122.973 376.5,124.5C 375.094,124.027 374.427,123.027 374.5,121.5 Z"/></g>
<g><path style="opacity:0.525" fill="#1c3568" d="M 381.5,121.5 C 383.262,122.262 384.262,123.596 384.5,125.5C 382.738,124.738 381.738,123.404 381.5,121.5 Z"/></g>
<g><path style="opacity:0.102" fill="#1a3056" d="M 270.5,122.5 C 270.262,124.404 269.262,125.738 267.5,126.5C 267.738,124.596 268.738,123.262 270.5,122.5 Z"/></g>
<g><path style="opacity:0.416" fill="#1c325d" d="M 341.5,122.5 C 343.262,123.262 344.262,124.596 344.5,126.5C 342.738,125.738 341.738,124.404 341.5,122.5 Z"/></g>
<g><path style="opacity:0.506" fill="#1d3462" d="M 305.5,124.5 C 304.92,126.749 303.587,128.415 301.5,129.5C 302.08,127.251 303.413,125.585 305.5,124.5 Z"/></g>
<g><path style="opacity:0.075" fill="#1a2c4b" d="M 376.5,124.5 C 379.471,126.443 381.471,129.109 382.5,132.5C 380.016,130.2 378.016,127.533 376.5,124.5 Z"/></g>
<g><path style="opacity:0.027" fill="#1b2a46" d="M 267.5,126.5 C 267.573,128.027 266.906,129.027 265.5,129.5C 265.427,127.973 266.094,126.973 267.5,126.5 Z"/></g>
<g><path style="opacity:0.447" fill="#1b376a" d="M 384.5,125.5 C 385.906,125.973 386.573,126.973 386.5,128.5C 385.094,128.027 384.427,127.027 384.5,125.5 Z"/></g>
<g><path style="opacity:0.49" fill="#1c3668" d="M 263.5,122.5 C 262.471,125.891 260.471,128.557 257.5,130.5C 259.016,127.467 261.016,124.8 263.5,122.5 Z"/></g>
<g><path style="opacity:0.459" fill="#1c3461" d="M 344.5,126.5 C 346.262,127.262 347.262,128.596 347.5,130.5C 345.738,129.738 344.738,128.404 344.5,126.5 Z"/></g>
<g><path style="opacity:0.62" fill="#1c3361" d="M 386.5,128.5 C 388.587,129.585 389.92,131.251 390.5,133.5C 388.413,132.415 387.08,130.749 386.5,128.5 Z"/></g>
<g><path style="opacity:0.027" fill="#1b2c49" d="M 265.5,129.5 C 265.573,131.027 264.906,132.027 263.5,132.5C 263.427,130.973 264.094,129.973 265.5,129.5 Z"/></g>
<g><path style="opacity:0.325" fill="#1d2e50" d="M 301.5,129.5 C 301.262,131.404 300.262,132.738 298.5,133.5C 298.738,131.596 299.738,130.262 301.5,129.5 Z"/></g>
<g><path style="opacity:0.322" fill="#1c2e50" d="M 257.5,130.5 C 257.262,132.404 256.262,133.738 254.5,134.5C 254.738,132.596 255.738,131.262 257.5,130.5 Z"/></g>
<g><path style="opacity:0.275" fill="#1c2e50" d="M 347.5,130.5 C 348.906,130.973 349.573,131.973 349.5,133.5C 348.094,133.027 347.427,132.027 347.5,130.5 Z"/></g>
<g><path style="opacity:0.055" fill="#1b2d50" d="M 382.5,132.5 C 384.262,133.262 385.262,134.596 385.5,136.5C 383.738,135.738 382.738,134.404 382.5,132.5 Z"/></g>
<g><path style="opacity:0.212" fill="#1b2d4c" d="M 298.5,133.5 C 298.573,135.027 297.906,136.027 296.5,136.5C 296.427,134.973 297.094,133.973 298.5,133.5 Z"/></g>
<g><path style="opacity:0.31" fill="#1c3057" d="M 349.5,133.5 C 350.906,133.973 351.573,134.973 351.5,136.5C 350.094,136.027 349.427,135.027 349.5,133.5 Z"/></g>
<g><path style="opacity:0.341" fill="#1b325e" d="M 390.5,133.5 C 391.906,133.973 392.573,134.973 392.5,136.5C 391.094,136.027 390.427,135.027 390.5,133.5 Z"/></g>
<g><path style="opacity:0.063" fill="#1b2f53" d="M 262.5,133.5 C 261.66,135.853 260.326,137.853 258.5,139.5C 258.845,136.802 260.178,134.802 262.5,133.5 Z"/></g>
<g><path style="opacity:0.239" fill="#1c2c49" d="M 351.5,136.5 C 352.906,136.973 353.573,137.973 353.5,139.5C 352.094,139.027 351.427,138.027 351.5,136.5 Z"/></g>
<g><path style="opacity:0.322" fill="#1c2f55" d="M 392.5,136.5 C 393.906,136.973 394.573,137.973 394.5,139.5C 393.094,139.027 392.427,138.027 392.5,136.5 Z"/></g>
<g><path style="opacity:0.306" fill="#1c2e50" d="M 254.5,134.5 C 254.155,137.198 252.822,139.198 250.5,140.5C 251.34,138.147 252.674,136.147 254.5,134.5 Z"/></g>
<g><path style="opacity:0.682" fill="#1e3565" d="M 296.5,136.5 C 295.647,140.02 293.647,142.687 290.5,144.5C 292.122,141.545 294.122,138.878 296.5,136.5 Z"/></g>
<g><path style="opacity:0.725" fill="#1d376d" d="M 353.5,139.5 C 355.262,140.262 356.262,141.596 356.5,143.5C 354.738,142.738 353.738,141.404 353.5,139.5 Z"/></g>
<g><path style="opacity:0.016" fill="#1b3056" d="M 386.5,138.5 C 388.531,139.539 389.864,141.205 390.5,143.5C 388.457,142.421 387.124,140.754 386.5,138.5 Z"/></g>
<g><path style="opacity:0.016" fill="#1c2d4d" d="M 257.5,140.5 C 257.573,142.027 256.906,143.027 255.5,143.5C 255.427,141.973 256.094,140.973 257.5,140.5 Z"/></g>
<g><path style="opacity:0.451" fill="#1e3159" d="M 394.5,139.5 C 396.587,140.585 397.92,142.251 398.5,144.5C 396.413,143.415 395.08,141.749 394.5,139.5 Z"/></g>
<g><path style="opacity:0.561" fill="#1a3974" d="M 250.5,140.5 C 250.262,142.404 249.262,143.738 247.5,144.5C 247.738,142.596 248.738,141.262 250.5,140.5 Z"/></g>
<g><path style="opacity:0.043" fill="#1a2c4a" d="M 255.5,143.5 C 255.573,145.027 254.906,146.027 253.5,146.5C 253.427,144.973 254.094,143.973 255.5,143.5 Z"/></g>
<g><path style="opacity:0.043" fill="#1a2b47" d="M 390.5,143.5 C 391.906,143.973 392.573,144.973 392.5,146.5C 391.094,146.027 390.427,145.027 390.5,143.5 Z"/></g>
<g><path style="opacity:0.286" fill="#1b3057" d="M 356.5,143.5 C 357.906,143.973 358.573,144.973 358.5,146.5C 357.094,146.027 356.427,145.027 356.5,143.5 Z"/></g>
<g><path style="opacity:0.29" fill="#1c2f56" d="M 247.5,144.5 C 247.573,146.027 246.906,147.027 245.5,147.5C 245.427,145.973 246.094,144.973 247.5,144.5 Z"/></g>
<g><path style="opacity:0.2" fill="#1c2943" d="M 290.5,144.5 C 290.573,146.027 289.906,147.027 288.5,147.5C 288.427,145.973 289.094,144.973 290.5,144.5 Z"/></g>
<g><path style="opacity:0.29" fill="#1c2e4f" d="M 398.5,144.5 C 399.906,144.973 400.573,145.973 400.5,147.5C 399.094,147.027 398.427,146.027 398.5,144.5 Z"/></g>
<g><path style="opacity:0.012" fill="#1a2d4e" d="M 392.5,146.5 C 394.262,147.262 395.262,148.596 395.5,150.5C 393.738,149.738 392.738,148.404 392.5,146.5 Z"/></g>
<g><path style="opacity:0.475" fill="#1b3465" d="M 358.5,146.5 C 360.262,147.262 361.262,148.596 361.5,150.5C 359.738,149.738 358.738,148.404 358.5,146.5 Z"/></g>
<g><path style="opacity:0.431" fill="#1d3159" d="M 245.5,147.5 C 244.92,149.749 243.587,151.415 241.5,152.5C 242.08,150.251 243.413,148.585 245.5,147.5 Z"/></g>
<g><path style="opacity:0.063" fill="#1a2d4f" d="M 252.5,147.5 C 252.262,149.404 251.262,150.738 249.5,151.5C 249.738,149.596 250.738,148.262 252.5,147.5 Z"/></g>
<g><path style="opacity:0.314" fill="#1d2d4d" d="M 288.5,147.5 C 288.262,149.404 287.262,150.738 285.5,151.5C 285.738,149.596 286.738,148.262 288.5,147.5 Z"/></g>
<g><path style="opacity:0.4" fill="#1b3465" d="M 400.5,147.5 C 401.906,147.973 402.573,148.973 402.5,150.5C 401.094,150.027 400.427,149.027 400.5,147.5 Z"/></g>
<g><path style="opacity:0.765" fill="#1c3973" d="M 361.5,150.5 C 363.262,151.262 364.262,152.596 364.5,154.5C 362.738,153.738 361.738,152.404 361.5,150.5 Z"/></g>
<g><path style="opacity:0.047" fill="#1b2d4d" d="M 249.5,151.5 C 248.66,153.853 247.326,155.853 245.5,157.5C 245.845,154.802 247.178,152.802 249.5,151.5 Z"/></g>
<g><path style="opacity:0.012" fill="#1b335f" d="M 395.5,150.5 C 397.446,151.035 398.446,152.368 398.5,154.5C 397.026,153.564 396.026,152.23 395.5,150.5 Z"/></g>
<g><path style="opacity:0.4" fill="#1c3360" d="M 285.5,151.5 C 285.262,153.404 284.262,154.738 282.5,155.5C 282.738,153.596 283.738,152.262 285.5,151.5 Z"/></g>
<g><path style="opacity:0.212" fill="#1c2d4e" d="M 241.5,152.5 C 241.573,154.027 240.906,155.027 239.5,155.5C 239.427,153.973 240.094,152.973 241.5,152.5 Z"/></g>
<g><path style="opacity:0.275" fill="#1d325b" d="M 402.5,150.5 C 404.587,151.585 405.92,153.251 406.5,155.5C 404.413,154.415 403.08,152.749 402.5,150.5 Z"/></g>
<g><path style="opacity:0.341" fill="#1c3058" d="M 364.5,154.5 C 365.906,154.973 366.573,155.973 366.5,157.5C 365.094,157.027 364.427,156.027 364.5,154.5 Z"/></g>
<g><path style="opacity:0.086" fill="#1c3568" d="M 398.5,154.5 C 400.446,155.035 401.446,156.368 401.5,158.5C 400.026,157.564 399.026,156.23 398.5,154.5 Z"/></g>
<g><path style="opacity:0.318" fill="#1d2d4f" d="M 239.5,155.5 C 239.262,157.404 238.262,158.738 236.5,159.5C 236.738,157.596 237.738,156.262 239.5,155.5 Z"/></g>
<g><path style="opacity:0.282" fill="#1c2f54" d="M 282.5,155.5 C 282.573,157.027 281.906,158.027 280.5,158.5C 280.427,156.973 281.094,155.973 282.5,155.5 Z"/></g>
<g><path style="opacity:0.396" fill="#1c3360" d="M 406.5,155.5 C 407.906,155.973 408.573,156.973 408.5,158.5C 407.094,158.027 406.427,157.027 406.5,155.5 Z"/></g>
<g><path style="opacity:0.024" fill="#1b2a46" d="M 245.5,157.5 C 244.92,159.749 243.587,161.415 241.5,162.5C 242.08,160.251 243.413,158.585 245.5,157.5 Z"/></g>
<g><path style="opacity:0.412" fill="#1c325e" d="M 366.5,157.5 C 368.262,158.262 369.262,159.596 369.5,161.5C 367.738,160.738 366.738,159.404 366.5,157.5 Z"/></g>
<g><path style="opacity:0.537" fill="#1c3669" d="M 408.5,158.5 C 410.262,159.262 411.262,160.596 411.5,162.5C 409.738,161.738 408.738,160.404 408.5,158.5 Z"/></g>
<g><path style="opacity:0.341" fill="#1c2a45" d="M 369.5,161.5 C 371.262,162.262 372.262,163.596 372.5,165.5C 370.738,164.738 369.738,163.404 369.5,161.5 Z"/></g>
<g><path style="opacity:0.29" fill="#183058" d="M 401.5,158.5 C 403.543,159.579 404.876,161.246 405.5,163.5C 403.469,162.461 402.136,160.795 401.5,158.5 Z"/></g>
<g><path style="opacity:0.514" fill="#1d3056" d="M 236.5,159.5 C 235.99,162.674 234.323,165.008 231.5,166.5C 232.786,163.883 234.453,161.55 236.5,159.5 Z"/></g>
<g><path style="opacity:0.047" fill="#1a2e52" d="M 241.5,162.5 C 241.573,164.027 240.906,165.027 239.5,165.5C 239.427,163.973 240.094,162.973 241.5,162.5 Z"/></g>
<g><path style="opacity:0.529" fill="#1c3463" d="M 280.5,158.5 C 279.471,161.891 277.471,164.557 274.5,166.5C 276.016,163.467 278.016,160.8 280.5,158.5 Z"/></g>
<g><path style="opacity:0.043" fill="#1c2f55" d="M 405.5,163.5 C 406.906,163.973 407.573,164.973 407.5,166.5C 406.094,166.027 405.427,165.027 405.5,163.5 Z"/></g>
<g><path style="opacity:0.416" fill="#1d3058" d="M 411.5,162.5 C 413.262,163.262 414.262,164.596 414.5,166.5C 412.738,165.738 411.738,164.404 411.5,162.5 Z"/></g>
<g><path style="opacity:0.047" fill="#1a2e51" d="M 239.5,165.5 C 239.262,167.404 238.262,168.738 236.5,169.5C 236.738,167.596 237.738,166.262 239.5,165.5 Z"/></g>
<g><path style="opacity:0.047" fill="#1b2c4c" d="M 407.5,166.5 C 408.906,166.973 409.573,167.973 409.5,169.5C 408.094,169.027 407.427,168.027 407.5,166.5 Z"/></g>
<g><path style="opacity:0.306" fill="#1b3158" d="M 231.5,166.5 C 231.573,168.027 230.906,169.027 229.5,169.5C 229.427,167.973 230.094,166.973 231.5,166.5 Z"/></g>
<g><path style="opacity:0.647" fill="#1b3a76" d="M 414.5,166.5 C 416.262,167.262 417.262,168.596 417.5,170.5C 415.738,169.738 414.738,168.404 414.5,166.5 Z"/></g>
<g><path style="opacity:0.286" fill="#173463" d="M 372.5,165.5 C 375.124,167.198 375.124,169.031 372.5,171C 369.5,171.167 366.5,171.333 363.5,171.5C 334.817,170.228 306.151,170.228 277.5,171.5C 274.083,170.983 273.083,169.317 274.5,166.5C 274.5,167.5 274.5,168.5 274.5,169.5C 307.167,169.5 339.833,169.5 372.5,169.5C 372.5,168.167 372.5,166.833 372.5,165.5 Z"/></g>
<g><path style="opacity:0.106" fill="#1b2f54" d="M 409.5,169.5 C 411.262,170.262 412.262,171.596 412.5,173.5C 410.738,172.738 409.738,171.404 409.5,169.5 Z"/></g>
<g><path style="opacity:0.384" fill="#1d325e" d="M 417.5,170.5 C 418.906,170.973 419.573,171.973 419.5,173.5C 418.094,173.027 417.427,172.027 417.5,170.5 Z"/></g>
<g><path style="opacity:0.525" fill="#1d3159" d="M 229.5,169.5 C 228.471,172.891 226.471,175.557 223.5,177.5C 225.016,174.467 227.016,171.8 229.5,169.5 Z"/></g>
<g><path style="opacity:0.047" fill="#1a2e52" d="M 233.5,173.5 C 233.573,175.027 232.906,176.027 231.5,176.5C 231.427,174.973 232.094,173.973 233.5,173.5 Z"/></g>
<g><path style="opacity:0.027" fill="#1a2e51" d="M 412.5,173.5 C 414.587,174.585 415.92,176.251 416.5,178.5C 414.413,177.415 413.08,175.749 412.5,173.5 Z"/></g>
<g><path style="opacity:0.549" fill="#1f325c" d="M 419.5,173.5 C 421.914,174.911 423.581,176.911 424.5,179.5C 422.086,178.089 420.419,176.089 419.5,173.5 Z"/></g>
<g><path style="opacity:0.031" fill="#1a2e50" d="M 231.5,176.5 C 230.66,178.853 229.326,180.853 227.5,182.5C 227.845,179.802 229.178,177.802 231.5,176.5 Z"/></g>
<g><path style="opacity:0.192" fill="#1c2b48" d="M 223.5,177.5 C 223.573,179.027 222.906,180.027 221.5,180.5C 221.427,178.973 222.094,177.973 223.5,177.5 Z"/></g>
<g><path style="opacity:0.149" fill="#1a3057" d="M 416.5,178.5 C 417.906,178.973 418.573,179.973 418.5,181.5C 417.094,181.027 416.427,180.027 416.5,178.5 Z"/></g>
<g><path style="opacity:0.275" fill="#1c2e51" d="M 221.5,180.5 C 221.573,182.027 220.906,183.027 219.5,183.5C 219.427,181.973 220.094,180.973 221.5,180.5 Z"/></g>
<g><path style="opacity:0.122" fill="#1a3058" d="M 418.5,181.5 C 420.262,182.262 421.262,183.596 421.5,185.5C 419.738,184.738 418.738,183.404 418.5,181.5 Z"/></g>
<g><path style="opacity:0.494" fill="#1c3566" d="M 425.5,181.5 C 427.262,182.262 428.262,183.596 428.5,185.5C 426.738,184.738 425.738,183.404 425.5,181.5 Z"/></g>
<g><path style="opacity:0.396" fill="#1c325c" d="M 219.5,183.5 C 218.567,186.37 216.9,188.704 214.5,190.5C 215.433,187.63 217.1,185.296 219.5,183.5 Z"/></g>
<g><path style="opacity:0.039" fill="#1b2e4f" d="M 225.5,184.5 C 225.573,186.027 224.906,187.027 223.5,187.5C 223.427,185.973 224.094,184.973 225.5,184.5 Z"/></g>
<g><path style="opacity:0.094" fill="#1b2a45" d="M 421.5,185.5 C 422.906,185.973 423.573,186.973 423.5,188.5C 422.094,188.027 421.427,187.027 421.5,185.5 Z"/></g>
<g><path style="opacity:0.227" fill="#1c2d4e" d="M 428.5,185.5 C 429.906,185.973 430.573,186.973 430.5,188.5C 429.094,188.027 428.427,187.027 428.5,185.5 Z"/></g>
<g><path style="opacity:0.075" fill="#1b315c" d="M 223.5,187.5 C 223.573,189.027 222.906,190.027 221.5,190.5C 221.427,188.973 222.094,187.973 223.5,187.5 Z"/></g>
<g><path style="opacity:0.393" fill="#19315b" d="M 382.5,251.5 C 382.5,254.833 382.5,258.167 382.5,261.5C 382.167,261.5 381.833,261.5 381.5,261.5C 381.5,236.833 381.5,212.167 381.5,187.5C 342.5,187.5 303.5,187.5 264.5,187.5C 302.373,186.827 340.373,186.161 378.5,185.5C 379.736,186.246 381.07,186.579 382.5,186.5C 383.525,208.093 383.525,229.759 382.5,251.5 Z"/></g>
<g><path style="opacity:0.047" fill="#1a2e50" d="M 423.5,188.5 C 425.262,189.262 426.262,190.596 426.5,192.5C 424.738,191.738 423.738,190.404 423.5,188.5 Z"/></g>
<g><path style="opacity:0.016" fill="#1c2e4e" d="M 221.5,190.5 C 221.573,192.027 220.906,193.027 219.5,193.5C 219.427,191.973 220.094,190.973 221.5,190.5 Z"/></g>
<g><path style="opacity:0.416" fill="#1c325d" d="M 214.5,190.5 C 214.262,192.404 213.262,193.738 211.5,194.5C 211.738,192.596 212.738,191.262 214.5,190.5 Z"/></g>
<g><path style="opacity:0.239" fill="#1e2f54" d="M 430.5,188.5 C 432.587,189.585 433.92,191.251 434.5,193.5C 432.413,192.415 431.08,190.749 430.5,188.5 Z"/></g>
<g><path style="opacity:0.134" fill="#1b2d4d" d="M 234.5,219.5 C 234.489,221.017 233.823,222.184 232.5,223C 240.827,223.5 249.16,223.666 257.5,223.5C 257.832,213.478 257.499,203.478 256.5,193.5C 251.821,199.509 246.821,205.175 241.5,210.5C 246.082,203.745 251.249,197.412 257,191.5C 258.147,196.999 258.647,202.666 258.5,208.5C 258.167,213.833 257.833,219.167 257.5,224.5C 248.882,225.637 240.215,225.804 231.5,225C 230.762,222.497 231.762,220.663 234.5,219.5 Z"/></g>
<g><path style="opacity:0.107" fill="#1c263a" d="M 391.5,195.5 C 390.518,194.859 389.518,194.193 388.5,193.5C 387.501,203.478 387.168,213.478 387.5,223.5C 386.341,213.342 386.175,203.008 387,192.5C 389.552,191.513 391.052,192.513 391.5,195.5 Z"/></g>
<g><path style="opacity:0.027" fill="#1a2b49" d="M 426.5,192.5 C 427.906,192.973 428.573,193.973 428.5,195.5C 427.094,195.027 426.427,194.027 426.5,192.5 Z"/></g>
<g><path style="opacity:0.016" fill="#1d2c4a" d="M 219.5,193.5 C 219.573,195.027 218.906,196.027 217.5,196.5C 217.427,194.973 218.094,193.973 219.5,193.5 Z"/></g>
<g><path style="opacity:1" fill="#0163f7" d="M 391.5,195.5 C 392.08,197.749 393.413,199.415 395.5,200.5C 396.08,202.749 397.413,204.415 399.5,205.5C 400.08,207.749 401.413,209.415 403.5,210.5C 404.08,212.749 405.413,214.415 407.5,215.5C 408.419,218.089 410.086,220.089 412.5,221.5C 404.567,223.468 396.234,224.135 387.5,223.5C 387.168,213.478 387.501,203.478 388.5,193.5C 389.518,194.193 390.518,194.859 391.5,195.5 Z"/></g>
<g><path style="opacity:1" fill="#0064fb" d="M 234.5,219.5 C 236.587,218.415 237.92,216.749 238.5,214.5C 240.262,213.738 241.262,212.404 241.5,210.5C 246.821,205.175 251.821,199.509 256.5,193.5C 257.499,203.478 257.832,213.478 257.5,223.5C 249.16,223.666 240.827,223.5 232.5,223C 233.823,222.184 234.489,221.017 234.5,219.5 Z"/></g>
<g><path style="opacity:0.18" fill="#1c2a44" d="M 434.5,193.5 C 435.906,193.973 436.573,194.973 436.5,196.5C 435.094,196.027 434.427,195.027 434.5,193.5 Z"/></g>
<g><path style="opacity:0.62" fill="#1d3462" d="M 211.5,194.5 C 210.99,197.674 209.323,200.008 206.5,201.5C 207.786,198.883 209.453,196.55 211.5,194.5 Z"/></g>
<g><path style="opacity:0.004" fill="#1a2b48" d="M 216.5,197.5 C 216.573,199.027 215.906,200.027 214.5,200.5C 214.427,198.973 215.094,197.973 216.5,197.5 Z"/></g>
<g><path style="opacity:0.275" fill="#1e2b48" d="M 391.5,195.5 C 393.587,196.585 394.92,198.251 395.5,200.5C 393.413,199.415 392.08,197.749 391.5,195.5 Z"/></g>
<g><path style="opacity:0.302" fill="#1c2e51" d="M 436.5,196.5 C 437.906,196.973 438.573,197.973 438.5,199.5C 437.094,199.027 436.427,198.027 436.5,196.5 Z"/></g>
<g><path style="opacity:0.012" fill="#1b2e50" d="M 428.5,195.5 C 431.471,197.443 433.471,200.109 434.5,203.5C 432.016,201.2 430.016,198.533 428.5,195.5 Z"/></g>
<g><path style="opacity:0.843" fill="#1d3971" d="M 438.5,199.5 C 440.587,200.585 441.92,202.251 442.5,204.5C 440.413,203.415 439.08,201.749 438.5,199.5 Z"/></g>
<g><path style="opacity:0.573" fill="#1e325b" d="M 395.5,200.5 C 397.587,201.585 398.92,203.251 399.5,205.5C 397.413,204.415 396.08,202.749 395.5,200.5 Z"/></g>
<g><path style="opacity:0.067" fill="#192e52" d="M 213.5,201.5 C 213.573,203.027 212.906,204.027 211.5,204.5C 211.427,202.973 212.094,201.973 213.5,201.5 Z"/></g>
<g><path style="opacity:0.318" fill="#1b3361" d="M 206.5,201.5 C 206.573,203.027 205.906,204.027 204.5,204.5C 204.427,202.973 205.094,201.973 206.5,201.5 Z"/></g>
<g><path style="opacity:0.035" fill="#1a2c4b" d="M 434.5,203.5 C 435.906,203.973 436.573,204.973 436.5,206.5C 435.094,206.027 434.427,205.027 434.5,203.5 Z"/></g>
<g><path style="opacity:0.357" fill="#1c3056" d="M 204.5,204.5 C 204.262,206.404 203.262,207.738 201.5,208.5C 201.738,206.596 202.738,205.262 204.5,204.5 Z"/></g>
<g><path style="opacity:0.078" fill="#1b3564" d="M 210.5,205.5 C 210.573,207.027 209.906,208.027 208.5,208.5C 208.427,206.973 209.094,205.973 210.5,205.5 Z"/></g>
<g><path style="opacity:0.278" fill="#1d2d4d" d="M 442.5,204.5 C 443.906,204.973 444.573,205.973 444.5,207.5C 443.094,207.027 442.427,206.027 442.5,204.5 Z"/></g>
<g><path style="opacity:0.059" fill="#1a2d4e" d="M 436.5,206.5 C 438.587,207.585 439.92,209.251 440.5,211.5C 438.413,210.415 437.08,208.749 436.5,206.5 Z"/></g>
<g><path style="opacity:0.494" fill="#1d325d" d="M 201.5,208.5 C 201.262,210.404 200.262,211.738 198.5,212.5C 198.738,210.596 199.738,209.262 201.5,208.5 Z"/></g>
<g><path style="opacity:0.02" fill="#1a2c4a" d="M 208.5,208.5 C 208.573,210.027 207.906,211.027 206.5,211.5C 206.427,209.973 207.094,208.973 208.5,208.5 Z"/></g>
<g><path style="opacity:0.251" fill="#1d2f53" d="M 399.5,205.5 C 401.587,206.585 402.92,208.251 403.5,210.5C 401.413,209.415 400.08,207.749 399.5,205.5 Z"/></g>
<g><path style="opacity:0.412" fill="#1d315a" d="M 444.5,207.5 C 446.262,208.262 447.262,209.596 447.5,211.5C 445.738,210.738 444.738,209.404 444.5,207.5 Z"/></g>
<g><path style="opacity:0.596" fill="#1d325c" d="M 403.5,210.5 C 405.587,211.585 406.92,213.251 407.5,215.5C 405.413,214.415 404.08,212.749 403.5,210.5 Z"/></g>
<g><path style="opacity:0.349" fill="#1c3056" d="M 241.5,210.5 C 241.262,212.404 240.262,213.738 238.5,214.5C 238.738,212.596 239.738,211.262 241.5,210.5 Z"/></g>
<g><path style="opacity:0.031" fill="#1a2e4f" d="M 440.5,211.5 C 441.906,211.973 442.573,212.973 442.5,214.5C 441.094,214.027 440.427,213.027 440.5,211.5 Z"/></g>
<g><path style="opacity:0.478" fill="#1c2f55" d="M 447.5,211.5 C 449.262,212.262 450.262,213.596 450.5,215.5C 448.738,214.738 447.738,213.404 447.5,211.5 Z"/></g>
<g><path style="opacity:0.392" fill="#1d3058" d="M 198.5,212.5 C 198.262,214.404 197.262,215.738 195.5,216.5C 195.738,214.596 196.738,213.262 198.5,212.5 Z"/></g>
<g><path style="opacity:0.008" fill="#1b2c4a" d="M 442.5,214.5 C 444.262,215.262 445.262,216.596 445.5,218.5C 443.738,217.738 442.738,216.404 442.5,214.5 Z"/></g>
<g><path style="opacity:0.063" fill="#1a2f54" d="M 203.5,215.5 C 203.573,217.027 202.906,218.027 201.5,218.5C 201.427,216.973 202.094,215.973 203.5,215.5 Z"/></g>
<g><path style="opacity:0.404" fill="#1e3159" d="M 238.5,214.5 C 237.92,216.749 236.587,218.415 234.5,219.5C 235.08,217.251 236.413,215.585 238.5,214.5 Z"/></g>
<g><path style="opacity:0.357" fill="#1b325d" d="M 450.5,215.5 C 451.906,215.973 452.573,216.973 452.5,218.5C 451.094,218.027 450.427,217.027 450.5,215.5 Z"/></g>
<g><path style="opacity:0.298" fill="#1c2f53" d="M 195.5,216.5 C 195.573,218.027 194.906,219.027 193.5,219.5C 193.427,217.973 194.094,216.973 195.5,216.5 Z"/></g>
<g><path style="opacity:0.047" fill="#172f53" d="M 201.5,218.5 C 201.5,219.833 200.833,220.5 199.5,220.5C 199.833,219.5 200.5,218.833 201.5,218.5 Z"/></g>
<g><path style="opacity:0.039" fill="#1b2c4c" d="M 445.5,218.5 C 446.906,218.973 447.573,219.973 447.5,221.5C 446.094,221.027 445.427,220.027 445.5,218.5 Z"/></g>
<g><path style="opacity:0.153" fill="#1e2d4d" d="M 407.5,215.5 C 409.914,216.911 411.581,218.911 412.5,221.5C 410.086,220.089 408.419,218.089 407.5,215.5 Z"/></g>
<g><path style="opacity:0.345" fill="#1d2f55" d="M 452.5,218.5 C 454.262,219.262 455.262,220.596 455.5,222.5C 453.738,221.738 452.738,220.404 452.5,218.5 Z"/></g>
<g><path style="opacity:0.306" fill="#1c2d4d" d="M 193.5,219.5 C 193.262,221.404 192.262,222.738 190.5,223.5C 190.738,221.596 191.738,220.262 193.5,219.5 Z"/></g>
<g><path style="opacity:0.086" fill="#1a2940" d="M 270.5,221.5 C 281.5,221.5 292.5,221.5 303.5,221.5C 303.5,236.833 303.5,252.167 303.5,267.5C 302.504,252.676 302.171,237.676 302.5,222.5C 291.752,222.191 281.085,222.524 270.5,223.5C 270.5,222.833 270.5,222.167 270.5,221.5 Z"/></g>
<g><path style="opacity:0.004" fill="#1c335e" d="M 447.5,221.5 C 449.531,222.539 450.864,224.205 451.5,226.5C 449.457,225.421 448.124,223.754 447.5,221.5 Z"/></g>
<g><path style="opacity:0.627" fill="#1c3564" d="M 455.5,222.5 C 457.262,223.262 458.262,224.596 458.5,226.5C 456.738,225.738 455.738,224.404 455.5,222.5 Z"/></g>
<g><path style="opacity:0.059" fill="#1a2f54" d="M 197.5,223.5 C 197.573,225.027 196.906,226.027 195.5,226.5C 195.427,224.973 196.094,223.973 197.5,223.5 Z"/></g>
<g><path style="opacity:0.145" fill="#183463" d="M 412.5,221.5 C 414.104,222.287 414.771,223.62 414.5,225.5C 405.105,226.138 396.105,225.471 387.5,223.5C 396.234,224.135 404.567,223.468 412.5,221.5 Z"/></g>
<g><path style="opacity:0.365" fill="#1c3361" d="M 190.5,223.5 C 190.573,225.027 189.906,226.027 188.5,226.5C 188.427,224.973 189.094,223.973 190.5,223.5 Z"/></g>
<g><path style="opacity:0.043" fill="#182e50" d="M 195.5,226.5 C 195.573,228.027 194.906,229.027 193.5,229.5C 193.427,227.973 194.094,226.973 195.5,226.5 Z"/></g>
<g><path style="opacity:0.02" fill="#1b2c4a" d="M 451.5,226.5 C 452.906,226.973 453.573,227.973 453.5,229.5C 452.094,229.027 451.427,228.027 451.5,226.5 Z"/></g>
<g><path style="opacity:0.42" fill="#1d3566" d="M 188.5,226.5 C 186.6,230.732 183.933,234.399 180.5,237.5C 182.435,233.293 185.102,229.627 188.5,226.5 Z"/></g>
<g><path style="opacity:0.369" fill="#1b3565" d="M 458.5,226.5 C 459.906,226.973 460.573,227.973 460.5,229.5C 459.094,229.027 458.427,228.027 458.5,226.5 Z"/></g>
<g><path style="opacity:0.012" fill="#192d4c" d="M 193.5,229.5 C 193.5,230.833 192.833,231.5 191.5,231.5C 191.833,230.5 192.5,229.833 193.5,229.5 Z"/></g>
<g><path style="opacity:0.016" fill="#1c3055" d="M 453.5,229.5 C 455.262,230.262 456.262,231.596 456.5,233.5C 454.738,232.738 453.738,231.404 453.5,229.5 Z"/></g>
<g><path style="opacity:0.427" fill="#1c335f" d="M 460.5,229.5 C 462.262,230.262 463.262,231.596 463.5,233.5C 461.738,232.738 460.738,231.404 460.5,229.5 Z"/></g>
<g><path style="opacity:0.196" fill="#19325e" d="M 191.5,231.5 C 191.573,233.027 190.906,234.027 189.5,234.5C 189.427,232.973 190.094,231.973 191.5,231.5 Z"/></g>
<g><path style="opacity:0.631" fill="#1d3360" d="M 463.5,233.5 C 465.587,234.585 466.92,236.251 467.5,238.5C 465.413,237.415 464.08,235.749 463.5,233.5 Z"/></g>
<g><path style="opacity:0.016" fill="#1b2e50" d="M 189.5,234.5 C 189.573,236.027 188.906,237.027 187.5,237.5C 187.427,235.973 188.094,234.973 189.5,234.5 Z"/></g>
<g><path style="opacity:0.059" fill="#1c3462" d="M 456.5,233.5 C 458.446,234.035 459.446,235.368 459.5,237.5C 458.026,236.564 457.026,235.23 456.5,233.5 Z"/></g>
<g><path style="opacity:0.118" fill="#18315b" d="M 459.5,237.5 C 460.906,237.973 461.573,238.973 461.5,240.5C 460.094,240.027 459.427,239.027 459.5,237.5 Z"/></g>
<g><path style="opacity:0.282" fill="#1d2e51" d="M 180.5,237.5 C 180.573,239.027 179.906,240.027 178.5,240.5C 178.427,238.973 179.094,237.973 180.5,237.5 Z"/></g>
<g><path style="opacity:0.263" fill="#1c2c4d" d="M 467.5,238.5 C 468.906,238.973 469.573,239.973 469.5,241.5C 468.094,241.027 467.427,240.027 467.5,238.5 Z"/></g>
<g><path style="opacity:0.082" fill="#193056" d="M 185.5,240.5 C 185.573,242.027 184.906,243.027 183.5,243.5C 183.427,241.973 184.094,240.973 185.5,240.5 Z"/></g>
<g><path style="opacity:0.047" fill="#1a2d4d" d="M 461.5,240.5 C 462.906,240.973 463.573,241.973 463.5,243.5C 462.094,243.027 461.427,242.027 461.5,240.5 Z"/></g>
<g><path style="opacity:0.388" fill="#1c3057" d="M 178.5,240.5 C 177.471,243.891 175.471,246.557 172.5,248.5C 174.016,245.467 176.016,242.8 178.5,240.5 Z"/></g>
<g><path style="opacity:0.412" fill="#1d3056" d="M 469.5,241.5 C 471.262,242.262 472.262,243.596 472.5,245.5C 470.738,244.738 469.738,243.404 469.5,241.5 Z"/></g>
<g><path style="opacity:0.145" fill="#1b2e52" d="M 182.5,244.5 C 182.573,246.027 181.906,247.027 180.5,247.5C 180.427,245.973 181.094,244.973 182.5,244.5 Z"/></g>
<g><path style="opacity:0.463" fill="#1c2f52" d="M 472.5,245.5 C 474.262,246.262 475.262,247.596 475.5,249.5C 473.738,248.738 472.738,247.404 472.5,245.5 Z"/></g>
<g><path style="opacity:0.09" fill="#1b2f55" d="M 180.5,247.5 C 180.262,249.404 179.262,250.738 177.5,251.5C 177.738,249.596 178.738,248.262 180.5,247.5 Z"/></g>
<g><path style="opacity:0.29" fill="#1c2f52" d="M 172.5,248.5 C 172.573,250.027 171.906,251.027 170.5,251.5C 170.427,249.973 171.094,248.973 172.5,248.5 Z"/></g>
<g><path style="opacity:0.388" fill="#1d2f54" d="M 475.5,249.5 C 477.262,250.262 478.262,251.596 478.5,253.5C 476.738,252.738 475.738,251.404 475.5,249.5 Z"/></g>
<g><path style="opacity:0.051" fill="#1a2f52" d="M 177.5,251.5 C 177.573,253.027 176.906,254.027 175.5,254.5C 175.427,252.973 176.094,251.973 177.5,251.5 Z"/></g>
<g><path style="opacity:0.29" fill="#1c325c" d="M 170.5,251.5 C 170.573,253.027 169.906,254.027 168.5,254.5C 168.427,252.973 169.094,251.973 170.5,251.5 Z"/></g>
<g><path style="opacity:0.176" fill="#1c2940" d="M 478.5,253.5 C 479.906,253.973 480.573,254.973 480.5,256.5C 479.094,256.027 478.427,255.027 478.5,253.5 Z"/></g>
<g><path style="opacity:0.302" fill="#1c2e52" d="M 168.5,254.5 C 168.262,256.404 167.262,257.738 165.5,258.5C 165.738,256.596 166.738,255.262 168.5,254.5 Z"/></g>
<g><path style="opacity:0.467" fill="#1e2f53" d="M 480.5,256.5 C 482.262,257.262 483.262,258.596 483.5,260.5C 481.738,259.738 480.738,258.404 480.5,256.5 Z"/></g>
<g><path style="opacity:0.075" fill="#1c222c" d="M 263.5,188.5 C 263.5,212.833 263.5,237.167 263.5,261.5C 232.329,261.831 201.329,261.498 170.5,260.5C 171.701,258.091 173.367,256.091 175.5,254.5C 174.758,256.426 173.758,258.259 172.5,260C 202.498,260.5 232.498,260.667 262.5,260.5C 262.169,236.328 262.502,212.328 263.5,188.5 Z"/></g>
<g><path style="opacity:0.072" fill="#1c2430" d="M 463.5,243.5 C 468.549,248.588 472.883,254.255 476.5,260.5C 445.338,261.498 414.004,261.832 382.5,261.5C 382.5,258.167 382.5,254.833 382.5,251.5C 383.477,254.287 383.81,257.287 383.5,260.5C 413.841,260.833 444.174,260.5 474.5,259.5C 470.782,254.131 467.116,248.797 463.5,243.5 Z"/></g>
<g><path style="opacity:0.488" fill="#10428d" d="M 264.5,187.5 C 264.5,212.5 264.5,237.5 264.5,262.5C 232.826,262.833 201.16,262.5 169.5,261.5C 169.624,260.893 169.957,260.56 170.5,260.5C 201.329,261.498 232.329,261.831 263.5,261.5C 263.5,237.167 263.5,212.833 263.5,188.5C 263.5,187.833 263.833,187.5 264.5,187.5 Z"/></g>
<g><path style="opacity:0.489" fill="#113f86" d="M 476.5,260.5 C 477.043,260.56 477.376,260.893 477.5,261.5C 445.336,262.83 413.336,262.83 381.5,261.5C 381.833,261.5 382.167,261.5 382.5,261.5C 414.004,261.832 445.338,261.498 476.5,260.5 Z"/></g>
<g><path style="opacity:0.341" fill="#1b325e" d="M 483.5,260.5 C 484.906,260.973 485.573,261.973 485.5,263.5C 484.094,263.027 483.427,262.027 483.5,260.5 Z"/></g>
<g><path style="opacity:0.753" fill="#0c4db3" d="M 485.5,263.5 C 486.906,263.973 487.573,264.973 487.5,266.5C 450.5,267.833 413.5,267.833 376.5,266.5C 413.168,266.667 449.835,266.5 486.5,266C 485.748,265.329 485.414,264.496 485.5,263.5 Z"/></g>
<g><path style="opacity:0.049" fill="#1b2d4d" d="M 270.5,221.5 C 270.5,222.167 270.5,222.833 270.5,223.5C 271.783,238.186 271.783,252.853 270.5,267.5C 234.171,268.667 197.838,268.833 161.5,268C 160.56,264.041 161.893,260.874 165.5,258.5C 163.664,261.183 162.664,264.183 162.5,267.5C 198.167,267.5 233.833,267.5 269.5,267.5C 269.17,251.991 269.504,236.658 270.5,221.5 Z"/></g>
<g><path style="opacity:0.06" fill="#192943" d="M 376.5,266.5 C 413.5,267.833 450.5,267.833 487.5,266.5C 488.713,267.497 488.546,268.497 487,269.5C 459.225,268.195 431.392,268.195 403.5,269.5C 394.182,268.778 384.848,268.278 375.5,268C 374.509,252.911 374.176,237.745 374.5,222.5C 364.167,222.5 353.833,222.5 343.5,222.5C 343.829,237.676 343.496,252.676 342.5,267.5C 342.5,252.167 342.5,236.833 342.5,221.5C 353.5,221.5 364.5,221.5 375.5,221.5C 375.171,236.676 375.504,251.676 376.5,266.5 Z"/></g>
<g><path style="opacity:0.092" fill="#182f52" d="M 303.5,267.5 C 316.5,267.5 329.5,267.5 342.5,267.5C 342.389,268.117 342.056,268.617 341.5,269C 331.48,269.241 321.48,269.741 311.5,270.5C 309.133,270.158 306.8,269.658 304.5,269C 303.944,268.617 303.611,268.117 303.5,267.5 Z"/></g>
<g><path style="opacity:0.496" fill="#1f315a" d="M 198.5,274.5 C 194.5,274.5 190.5,274.5 186.5,274.5C 190.5,271.833 194.5,271.833 198.5,274.5 Z"/></g>
<g><path style="opacity:0.227" fill="#1c2c4b" d="M 309.5,272.5 C 309.82,275.898 309.487,279.232 308.5,282.5C 305.579,281.593 302.579,281.26 299.5,281.5C 301.715,279.426 304.215,279.093 307,280.5C 307.279,277.543 308.113,274.877 309.5,272.5 Z"/></g>
<g><path style="opacity:1" fill="#0960eb" d="M 314.5,272.5 C 314.5,282.167 314.5,291.833 314.5,301.5C 312.508,301.672 310.842,301.005 309.5,299.5C 308.261,299.942 307.261,300.609 306.5,301.5C 304.549,302.641 302.549,302.641 300.5,301.5C 296.599,296.958 295.432,291.625 297,285.5C 297.662,284.016 298.496,282.683 299.5,281.5C 302.579,281.26 305.579,281.593 308.5,282.5C 309.487,279.232 309.82,275.898 309.5,272.5C 311.167,271.167 312.833,271.167 314.5,272.5 Z M 306.5,296.5 C 305.5,296.5 304.5,296.5 303.5,296.5C 301.736,292.756 302.236,289.423 305,286.5C 308.937,289.347 309.437,292.68 306.5,296.5 Z"/></g>
<g><path style="opacity:0.251" fill="#1a2b47" d="M 314.5,272.5 C 315.117,272.611 315.617,272.944 316,273.5C 316.167,275.833 316.333,278.167 316.5,280.5C 316.167,287.834 315.834,295.167 315.5,302.5C 312.105,302.415 309.105,302.082 306.5,301.5C 307.261,300.609 308.261,299.942 309.5,299.5C 310.842,301.005 312.508,301.672 314.5,301.5C 314.5,291.833 314.5,282.167 314.5,272.5 Z"/></g>
<g><path style="opacity:0.475" fill="#1c376c" d="M 395.5,274.5 C 390.463,274.413 385.463,274.746 380.5,275.5C 380.918,274.778 381.584,274.278 382.5,274C 387.02,273.186 391.354,273.353 395.5,274.5 Z"/></g>
<g><path style="opacity:0.079" fill="#1c2534" d="M 402.5,272.5 C 402.334,281.839 402.5,291.173 403,300.5C 404.616,301.801 406.116,301.801 407.5,300.5C 407.833,300.5 408.167,300.5 408.5,300.5C 406.807,302.766 404.64,303.1 402,301.5C 401.804,293.118 401.304,284.785 400.5,276.5C 400.994,274.974 401.661,273.641 402.5,272.5 Z"/></g>
<g><path style="opacity:1" fill="#0261f0" d="M 402.5,272.5 C 404.167,272.5 405.833,272.5 407.5,272.5C 407.5,281.833 407.5,291.167 407.5,300.5C 406.116,301.801 404.616,301.801 403,300.5C 402.5,291.173 402.334,281.839 402.5,272.5 Z"/></g>
<g><path style="opacity:0.669" fill="#21386e" d="M 402.5,272.5 C 404.863,270.998 407.03,271.332 409,273.5C 409.824,282.676 409.657,291.676 408.5,300.5C 408.167,300.5 407.833,300.5 407.5,300.5C 407.5,291.167 407.5,281.833 407.5,272.5C 405.833,272.5 404.167,272.5 402.5,272.5 Z"/></g>
<g><path style="opacity:1" fill="#0860ec" d="M 186.5,274.5 C 190.5,274.5 194.5,274.5 198.5,274.5C 198.973,275.906 199.973,276.573 201.5,276.5C 204.168,281.417 205.168,286.75 204.5,292.5C 204.737,293.791 204.404,294.791 203.5,295.5C 201.5,296.833 199.833,298.5 198.5,300.5C 197.209,300.263 196.209,300.596 195.5,301.5C 192.833,302.833 190.167,302.833 187.5,301.5C 185.483,300.471 183.483,299.471 181.5,298.5C 179.552,293.012 179.052,287.345 180,281.5C 181.332,279.34 182.832,277.34 184.5,275.5C 184.842,274.662 185.508,274.328 186.5,274.5 Z M 195.5,295.5 C 194.508,295.328 193.842,295.662 193.5,296.5C 190.439,296.556 188.272,295.222 187,292.5C 186.501,288.848 186.335,285.182 186.5,281.5C 187.167,281.5 187.5,281.167 187.5,280.5C 193.815,277.973 197.148,280.14 197.5,287C 196.907,289.87 196.241,292.703 195.5,295.5 Z"/></g>
<g><path style="opacity:1" fill="#0f5fe8" d="M 395.5,274.5 C 397.438,276.194 397.771,278.194 396.5,280.5C 385.133,275.753 379.966,279.42 381,291.5C 381.377,292.942 382.21,293.942 383.5,294.5C 383.577,295.75 384.244,296.583 385.5,297C 391.918,298.607 394.251,296.107 392.5,289.5C 390.5,289.5 388.5,289.5 386.5,289.5C 386.5,288.167 386.5,286.833 386.5,285.5C 390.167,284.167 393.833,284.167 397.5,285.5C 397.666,290.179 397.499,294.845 397,299.5C 395.53,300.267 394.03,300.933 392.5,301.5C 389.833,302.833 387.167,302.833 384.5,301.5C 382.95,300.559 381.284,299.893 379.5,299.5C 376.006,295.19 374.672,290.19 375.5,284.5C 375.891,280.779 377.558,277.779 380.5,275.5C 385.463,274.746 390.463,274.413 395.5,274.5 Z"/></g>
<g><path style="opacity:0.098" fill="#1e273d" d="M 198.5,274.5 C 200.027,274.427 201.027,275.094 201.5,276.5C 199.973,276.573 198.973,275.906 198.5,274.5 Z"/></g>
<g><path style="opacity:1" fill="#0261f1" d="M 330.5,276.5 C 332.167,276.5 333.833,276.5 335.5,276.5C 335.5,278.167 335.5,279.833 335.5,281.5C 337.167,281.5 338.833,281.5 340.5,281.5C 340.5,282.833 340.5,284.167 340.5,285.5C 338.833,285.5 337.167,285.5 335.5,285.5C 335.335,289.182 335.501,292.848 336,296.5C 337.011,297.337 338.178,297.67 339.5,297.5C 339.5,298.5 339.5,299.5 339.5,300.5C 336.833,300.5 334.167,300.5 331.5,300.5C 330.608,295.562 330.274,290.562 330.5,285.5C 329.5,285.5 328.5,285.5 327.5,285.5C 327.5,284.167 327.5,282.833 327.5,281.5C 328.5,281.5 329.5,281.5 330.5,281.5C 330.5,279.833 330.5,278.167 330.5,276.5 Z"/></g>
<g><path style="opacity:0.163" fill="#1c273c" d="M 340.5,281.5 C 338.833,281.5 337.167,281.5 335.5,281.5C 335.5,279.833 335.5,278.167 335.5,276.5C 333.833,276.5 332.167,276.5 330.5,276.5C 334.696,273.77 337.03,275.104 337.5,280.5C 338.791,280.263 339.791,280.596 340.5,281.5 Z"/></g>
<g><path style="opacity:0.204" fill="#1b2e4f" d="M 195.5,295.5 C 196.241,292.703 196.907,289.87 197.5,287C 197.148,280.14 193.815,277.973 187.5,280.5C 194.539,276.385 198.206,278.551 198.5,287C 198.755,290.408 197.755,293.241 195.5,295.5 Z"/></g>
<g><path style="opacity:0.068" fill="#1a2c4b" d="M 395.5,274.5 C 399.335,275.446 400.335,277.779 398.5,281.5C 396.693,282.799 395.027,282.632 393.5,281C 382.799,279.882 379.466,284.382 383.5,294.5C 382.21,293.942 381.377,292.942 381,291.5C 379.966,279.42 385.133,275.753 396.5,280.5C 397.771,278.194 397.438,276.194 395.5,274.5 Z"/></g>
<g><path style="opacity:0.576" fill="#1f3057" d="M 225.5,283.5 C 223.577,282.149 221.41,281.482 219,281.5C 215.549,282.382 212.049,282.382 208.5,281.5C 211.846,280.729 215.346,280.062 219,279.5C 220.872,280.068 222.705,280.735 224.5,281.5C 225.298,281.957 225.631,282.624 225.5,283.5 Z"/></g>
<g><path style="opacity:0.424" fill="#1e2f53" d="M 276.5,282.5 C 272.232,281.627 267.898,281.294 263.5,281.5C 268.088,278.654 272.422,278.988 276.5,282.5 Z"/></g>
<g><path style="opacity:0.345" fill="#1b2d50" d="M 468.5,281.5 C 466.5,281.5 464.5,281.5 462.5,281.5C 464.406,279.006 466.406,279.006 468.5,281.5 Z"/></g>
<g><path style="opacity:1" fill="#0561f0" d="M 208.5,281.5 C 212.049,282.382 215.549,282.382 219,281.5C 221.41,281.482 223.577,282.149 225.5,283.5C 225.5,289.167 225.5,294.833 225.5,300.5C 224.432,301.434 223.099,301.768 221.5,301.5C 221.666,296.821 221.499,292.155 221,287.5C 218.731,284.946 216.398,284.946 214,287.5C 213.501,292.155 213.334,296.821 213.5,301.5C 211.833,302.833 210.167,302.833 208.5,301.5C 208.5,294.833 208.5,288.167 208.5,281.5 Z"/></g>
<g><path style="opacity:1" fill="#0660ec" d="M 263.5,281.5 C 267.898,281.294 272.232,281.627 276.5,282.5C 277.458,288.744 277.791,295.077 277.5,301.5C 275.508,301.672 273.842,301.005 272.5,299.5C 271.478,299.855 270.811,300.522 270.5,301.5C 268.239,302.328 266.072,302.661 264,302.5C 263.283,301.956 262.783,301.289 262.5,300.5C 260.759,296.342 261.426,292.676 264.5,289.5C 264.833,289.5 265.167,289.5 265.5,289.5C 267.833,289.5 270.167,289.5 272.5,289.5C 272.714,287.856 272.38,286.356 271.5,285C 268.289,284.202 265.289,284.702 262.5,286.5C 261.348,284.603 261.681,282.936 263.5,281.5 Z"/></g>
<g><path style="opacity:1" fill="#045fe9" d="M 282.5,281.5 C 284.766,281.141 286.599,281.808 288,283.5C 289.789,281.771 291.956,281.104 294.5,281.5C 294.5,282.833 294.5,284.167 294.5,285.5C 292.278,285.178 290.444,285.845 289,287.5C 288.501,291.821 288.334,296.154 288.5,300.5C 286.661,301.752 284.828,301.752 283,300.5C 282.5,294.175 282.334,287.842 282.5,281.5 Z"/></g>
<g><path style="opacity:1" fill="#0560ee" d="M 347.5,281.5 C 361.437,280.048 365.603,285.714 360,298.5C 358.729,299.883 357.229,300.883 355.5,301.5C 353.208,302.686 350.874,302.686 348.5,301.5C 342.92,298.03 341.087,293.03 343,286.5C 344.707,284.963 346.207,283.296 347.5,281.5 Z M 350.5,286.5 C 352.451,286.227 353.951,286.893 355,288.5C 355.769,291.099 355.602,293.599 354.5,296C 352.888,296.72 351.388,296.554 350,295.5C 349.264,292.408 349.431,289.408 350.5,286.5 Z"/></g>
<g><path style="opacity:0.514" fill="#1f3056" d="M 430.5,283.5 C 430.5,283.833 430.5,284.167 430.5,284.5C 425.982,281.277 420.982,280.61 415.5,282.5C 419.339,279.109 423.673,278.609 428.5,281C 429.381,281.708 430.047,282.542 430.5,283.5 Z"/></g>
<g><path style="opacity:1" fill="#0561f0" d="M 430.5,284.5 C 430.833,285.167 431.167,285.833 431.5,286.5C 432.919,293.038 430.919,298.038 425.5,301.5C 423.208,302.686 420.874,302.686 418.5,301.5C 417.609,300.89 416.609,300.557 415.5,300.5C 411.55,294.434 411.55,288.434 415.5,282.5C 420.982,280.61 425.982,281.277 430.5,284.5 Z M 420.5,286.5 C 421.833,286.5 423.167,286.5 424.5,286.5C 425.263,289.141 425.43,291.808 425,294.5C 421.256,297.52 419.089,296.52 418.5,291.5C 418.902,289.7 419.569,288.033 420.5,286.5 Z"/></g>
<g><path style="opacity:1" fill="#0361ef" d="M 234.5,281.5 C 235.354,285.583 236.521,289.583 238,293.5C 239.251,289.918 240.251,286.251 241,282.5C 242.699,281.594 244.533,281.261 246.5,281.5C 247.602,285.502 248.768,289.502 250,293.5C 251.786,290.042 253.119,286.376 254,282.5C 255.356,281.62 256.856,281.286 258.5,281.5C 257.341,288.295 255.674,294.962 253.5,301.5C 251.05,301.702 248.717,301.369 246.5,300.5C 246.24,296.698 245.406,293.031 244,289.5C 242.731,291.993 241.898,294.66 241.5,297.5C 240.596,298.209 240.263,299.209 240.5,300.5C 238.5,300.5 236.5,300.5 234.5,300.5C 232.636,294.236 230.969,287.903 229.5,281.5C 231.167,281.5 232.833,281.5 234.5,281.5 Z"/></g>
<g><path style="opacity:0.099" fill="#1b2638" d="M 282.5,281.5 C 282.334,287.842 282.5,294.175 283,300.5C 284.828,301.752 286.661,301.752 288.5,300.5C 286.807,302.766 284.64,303.1 282,301.5C 281.639,296.983 281.139,292.816 280.5,289C 281.123,286.393 281.79,283.893 282.5,281.5 Z"/></g>
<g><path style="opacity:0.161" fill="#1c2537" d="M 208.5,281.5 C 208.5,288.167 208.5,294.833 208.5,301.5C 207.281,298.579 206.614,295.412 206.5,292C 207.15,289.075 207.15,286.242 206.5,283.5C 206.747,282.287 207.414,281.62 208.5,281.5 Z"/></g>
<g><path style="opacity:0.08" fill="#1d2940" d="M 299.5,281.5 C 298.496,282.683 297.662,284.016 297,285.5C 295.432,291.625 296.599,296.958 300.5,301.5C 300.565,301.938 300.399,302.272 300,302.5C 295.18,298.875 293.68,294.208 295.5,288.5C 293.647,287.24 291.814,287.24 290,288.5C 289.824,292.688 289.324,296.688 288.5,300.5C 288.334,296.154 288.501,291.821 289,287.5C 290.444,285.845 292.278,285.178 294.5,285.5C 294.5,284.167 294.5,282.833 294.5,281.5C 291.956,281.104 289.789,281.771 288,283.5C 286.599,281.808 284.766,281.141 282.5,281.5C 285.36,280.756 288.36,280.089 291.5,279.5C 294.096,280.482 296.762,281.149 299.5,281.5 Z"/></g>
<g><path style="opacity:0.024" fill="#1d283e" d="M 340.5,281.5 C 341.315,282.429 342.148,283.429 343,284.5C 344.129,282.859 345.629,281.859 347.5,281.5C 346.207,283.296 344.707,284.963 343,286.5C 341.087,293.03 342.92,298.03 348.5,301.5C 348.565,301.938 348.399,302.272 348,302.5C 345.691,300.391 343.191,299.724 340.5,300.5C 340.737,299.209 340.404,298.209 339.5,297.5C 338.178,297.67 337.011,297.337 336,296.5C 335.501,292.848 335.335,289.182 335.5,285.5C 337.167,285.5 338.833,285.5 340.5,285.5C 340.5,284.167 340.5,282.833 340.5,281.5 Z M 336.5,287.5 C 338.167,287.5 339.833,287.5 341.5,287.5C 341.663,289.857 341.497,292.19 341,294.5C 340.311,295.357 339.478,296.023 338.5,296.5C 336.871,293.734 336.205,290.734 336.5,287.5 Z"/></g>
<g><path style="opacity:0.086" fill="#1c2535" d="M 201.5,276.5 C 203.173,277.343 204.34,278.676 205,280.5C 205.812,284.689 205.645,288.689 204.5,292.5C 205.168,286.75 204.168,281.417 201.5,276.5 Z"/></g>
<g><path style="opacity:0.237" fill="#1a2d4d" d="M 306.5,296.5 C 309.437,292.68 308.937,289.347 305,286.5C 302.236,289.423 301.736,292.756 303.5,296.5C 302.883,296.389 302.383,296.056 302,295.5C 301.333,292.5 301.333,289.5 302,286.5C 304.592,285.018 306.925,285.352 309,287.5C 309.667,290.167 309.667,292.833 309,295.5C 308.329,296.252 307.496,296.586 306.5,296.5 Z M 306.5,296.5 C 305.5,296.5 304.5,296.5 303.5,296.5C 301.736,292.756 302.236,289.423 305,286.5C 308.937,289.347 309.437,292.68 306.5,296.5 Z"/></g>
<g><path style="opacity:0.099" fill="#1c2331" d="M 380.5,275.5 C 377.558,277.779 375.891,280.779 375.5,284.5C 374.527,286.948 374.194,289.615 374.5,292.5C 373.202,288.592 373.368,284.592 375,280.5C 376.076,277.921 377.909,276.254 380.5,275.5 Z"/></g>
<g><path style="opacity:0.135" fill="#1b2e52" d="M 419.5,284.5 C 422.044,284.104 424.211,284.771 426,286.5C 427.023,290.317 426.523,293.817 424.5,297C 421.975,297.896 419.808,297.396 418,295.5C 417.112,291.598 417.612,287.931 419.5,284.5 Z M 420.5,286.5 C 419.569,288.033 418.902,289.7 418.5,291.5C 419.089,296.52 421.256,297.52 425,294.5C 425.43,291.808 425.263,289.141 424.5,286.5C 423.167,286.5 421.833,286.5 420.5,286.5 Z"/></g>
<g><path style="opacity:0.583" fill="#1d335f" d="M 184.5,275.5 C 182.832,277.34 181.332,279.34 180,281.5C 179.052,287.345 179.552,293.012 181.5,298.5C 176.837,292.301 176.337,285.634 180,278.5C 181.129,276.859 182.629,275.859 184.5,275.5 Z"/></g>
<g><path style="opacity:0.079" fill="#1e2a44" d="M 186.5,281.5 C 186.335,285.182 186.501,288.848 187,292.5C 188.272,295.222 190.439,296.556 193.5,296.5C 190.053,298.293 187.553,297.293 186,293.5C 184.595,289.928 184.262,286.261 185,282.5C 185.383,281.944 185.883,281.611 186.5,281.5 Z"/></g>
<g><path style="opacity:0.051" fill="#1a3058" d="M 225.5,300.5 C 225.833,300.5 226.167,300.5 226.5,300.5C 224.807,302.766 222.64,303.1 220,301.5C 219.667,297.167 219.333,292.833 219,288.5C 217.413,287.273 216.079,287.606 215,289.5C 214.824,293.688 214.324,297.688 213.5,301.5C 213.334,296.821 213.501,292.155 214,287.5C 216.398,284.946 218.731,284.946 221,287.5C 221.499,292.155 221.666,296.821 221.5,301.5C 223.099,301.768 224.432,301.434 225.5,300.5 Z"/></g>
<g><path style="opacity:0.089" fill="#1d273b" d="M 263.5,281.5 C 261.681,282.936 261.348,284.603 262.5,286.5C 265.289,284.702 268.289,284.202 271.5,285C 272.38,286.356 272.714,287.856 272.5,289.5C 270.167,289.5 267.833,289.5 265.5,289.5C 266.952,288.698 268.618,288.198 270.5,288C 270.167,287.667 269.833,287.333 269.5,287C 267.325,287.049 265.158,287.549 263,288.5C 261.347,288.18 260.347,287.18 260,285.5C 258.876,291.398 256.709,296.732 253.5,301.5C 255.674,294.962 257.341,288.295 258.5,281.5C 256.856,281.286 255.356,281.62 254,282.5C 253.119,286.376 251.786,290.042 250,293.5C 248.768,289.502 247.602,285.502 246.5,281.5C 244.533,281.261 242.699,281.594 241,282.5C 240.251,286.251 239.251,289.918 238,293.5C 236.521,289.583 235.354,285.583 234.5,281.5C 236.105,283.48 237.272,285.813 238,288.5C 238.102,280.852 241.435,278.518 248,281.5C 249.044,283.715 249.71,286.048 250,288.5C 250.977,285.898 252.144,283.398 253.5,281C 256.868,280.457 260.201,280.624 263.5,281.5 Z"/></g>
<g><path style="opacity:0.323" fill="#1a2e53" d="M 276.5,282.5 C 277.818,285.258 278.485,288.424 278.5,292C 278.498,295.352 278.165,298.518 277.5,301.5C 277.791,295.077 277.458,288.744 276.5,282.5 Z"/></g>
<g><path style="opacity:0.213" fill="#1b2943" d="M 330.5,276.5 C 330.5,278.167 330.5,279.833 330.5,281.5C 329.5,281.5 328.5,281.5 327.5,281.5C 327.5,282.833 327.5,284.167 327.5,285.5C 328.5,285.5 329.5,285.5 330.5,285.5C 330.274,290.562 330.608,295.562 331.5,300.5C 329.957,299.264 328.957,297.598 328.5,295.5C 329.544,293.232 329.711,290.899 329,288.5C 324.242,283.917 324.742,279.917 330.5,276.5 Z"/></g>
<g><path style="opacity:0.582" fill="#1b3973" d="M 225.5,283.5 C 226.954,286.718 227.621,290.218 227.5,294C 227.496,296.361 227.163,298.527 226.5,300.5C 226.167,300.5 225.833,300.5 225.5,300.5C 225.5,294.833 225.5,289.167 225.5,283.5 Z"/></g>
<g><path style="opacity:0.09" fill="#1c222b" d="M 435.5,281.5 C 435.5,287.833 435.5,294.167 435.5,300.5C 434.674,296.018 434.174,291.351 434,286.5C 433.821,290.025 433.321,293.359 432.5,296.5C 432.813,292.958 432.479,289.625 431.5,286.5C 431.167,285.833 430.833,285.167 430.5,284.5C 430.5,284.167 430.5,283.833 430.5,283.5C 432.284,283.107 433.95,282.441 435.5,281.5 Z"/></g>
<g><path style="opacity:0.133" fill="#1a2942" d="M 386.5,285.5 C 386.5,286.833 386.5,288.167 386.5,289.5C 388.531,289.972 390.198,290.972 391.5,292.5C 389.5,292.5 387.5,292.5 385.5,292.5C 383.924,289.785 384.258,287.452 386.5,285.5 Z"/></g>
<g><path style="opacity:0.439" fill="#1d2b49" d="M 415.5,282.5 C 411.55,288.434 411.55,294.434 415.5,300.5C 413.983,300.489 412.816,299.823 412,298.5C 410.317,293.867 410.317,289.201 412,284.5C 412.816,283.177 413.983,282.511 415.5,282.5 Z"/></g>
<g><path style="opacity:0.165" fill="#1b315a" d="M 375.5,284.5 C 374.672,290.19 376.006,295.19 379.5,299.5C 376.142,298.473 374.475,296.14 374.5,292.5C 374.194,289.615 374.527,286.948 375.5,284.5 Z"/></g>
<g><path style="opacity:0.024" fill="#1c2e50" d="M 462.5,281.5 C 462.047,285.693 460.881,289.693 459,293.5C 456.769,289.771 455.269,285.771 454.5,281.5C 452.833,281.5 451.167,281.5 449.5,281.5C 451.428,288.282 453.761,294.949 456.5,301.5C 455.423,303.729 454.756,306.063 454.5,308.5C 456.288,308.785 457.955,308.452 459.5,307.5C 462.203,298.664 465.203,289.998 468.5,281.5C 469.097,281.735 469.43,282.235 469.5,283C 466.401,291.462 463.401,299.962 460.5,308.5C 458.49,310.171 456.157,310.838 453.5,310.5C 455.052,302.314 453.385,294.814 448.5,288C 446.559,287.257 444.726,287.424 443,288.5C 442.824,292.688 442.324,296.688 441.5,300.5C 441.03,301.693 440.03,302.36 438.5,302.5C 436.97,302.36 435.97,301.693 435.5,300.5C 435.5,294.167 435.5,287.833 435.5,281.5C 436.374,280.475 437.541,279.808 439,279.5C 444.489,279.363 449.989,280.029 455.5,281.5C 456.194,284.088 457.36,286.421 459,288.5C 459.144,285.558 460.311,283.224 462.5,281.5 Z"/></g>
<g><path style="opacity:1" fill="#0262f3" d="M 462.5,281.5 C 464.5,281.5 466.5,281.5 468.5,281.5C 465.203,289.998 462.203,298.664 459.5,307.5C 457.955,308.452 456.288,308.785 454.5,308.5C 454.756,306.063 455.423,303.729 456.5,301.5C 453.761,294.949 451.428,288.282 449.5,281.5C 451.167,281.5 452.833,281.5 454.5,281.5C 455.269,285.771 456.769,289.771 459,293.5C 460.881,289.693 462.047,285.693 462.5,281.5 Z"/></g>
<g><path style="opacity:1" fill="#0261f2" d="M 441.5,300.5 C 439.958,301.301 438.292,301.634 436.5,301.5C 436.5,294.833 436.5,288.167 436.5,281.5C 438.451,281.227 439.951,281.893 441,283.5C 442.789,281.771 444.956,281.104 447.5,281.5C 447.5,282.833 447.5,284.167 447.5,285.5C 445.278,285.178 443.444,285.845 442,287.5C 441.501,291.821 441.334,296.154 441.5,300.5 Z"/></g>
<g><path style="opacity:0.095" fill="#1c2d4e" d="M 246.5,300.5 C 244.933,299.319 244.099,297.653 244,295.5C 243.243,297.315 242.41,298.981 241.5,300.5C 241.5,299.5 241.5,298.5 241.5,297.5C 241.898,294.66 242.731,291.993 244,289.5C 245.406,293.031 246.24,296.698 246.5,300.5 Z"/></g>
<g><path style="opacity:0.106" fill="#1c2f52" d="M 267.5,292.5 C 269.167,292.5 270.833,292.5 272.5,292.5C 272.836,297 270.836,298.833 266.5,298C 265.156,295.856 265.49,294.023 267.5,292.5 Z"/></g>
<g><path style="opacity:0.114" fill="#1b2b48" d="M 234.5,281.5 C 232.833,281.5 231.167,281.5 229.5,281.5C 230.969,287.903 232.636,294.236 234.5,300.5C 234.5,300.833 234.5,301.167 234.5,301.5C 233.21,300.942 232.377,299.942 232,298.5C 230.093,293.446 228.593,288.28 227.5,283C 227.645,282.228 227.978,281.561 228.5,281C 230.712,280.211 232.712,280.378 234.5,281.5 Z"/></g>
<g><path style="opacity:0.604" fill="#1d3159" d="M 264.5,289.5 C 261.426,292.676 260.759,296.342 262.5,300.5C 259.143,298.199 258.643,295.199 261,291.5C 261.816,290.177 262.983,289.511 264.5,289.5 Z"/></g>
<g><path style="opacity:0.165" fill="#1a3055" d="M 431.5,286.5 C 432.479,289.625 432.813,292.958 432.5,296.5C 431.04,298.463 429.373,300.296 427.5,302C 426.563,302.692 425.897,302.525 425.5,301.5C 430.919,298.038 432.919,293.038 431.5,286.5 Z"/></g>
<g><path style="opacity:0.047" fill="#1d2d4e" d="M 350.5,284.5 C 352.722,284.178 354.556,284.845 356,286.5C 356.789,290.091 356.622,293.591 355.5,297C 349.747,298.753 347.081,296.586 347.5,290.5C 347.628,288.045 348.628,286.045 350.5,284.5 Z M 350.5,286.5 C 349.431,289.408 349.264,292.408 350,295.5C 351.388,296.554 352.888,296.72 354.5,296C 355.602,293.599 355.769,291.099 355,288.5C 353.951,286.893 352.451,286.227 350.5,286.5 Z"/></g>
<g><path style="opacity:0.308" fill="#1c376d" d="M 386.5,289.5 C 388.5,289.5 390.5,289.5 392.5,289.5C 394.251,296.107 391.918,298.607 385.5,297C 384.244,296.583 383.577,295.75 383.5,294.5C 385.267,295.256 387.1,295.923 389,296.5C 390.595,295.644 391.428,294.311 391.5,292.5C 390.198,290.972 388.531,289.972 386.5,289.5 Z"/></g>
<g><path style="opacity:0.09" fill="#1c2f54" d="M 203.5,295.5 C 202.833,298.167 201.167,299.833 198.5,300.5C 199.833,298.5 201.5,296.833 203.5,295.5 Z"/></g>
<g><path style="opacity:0.859" fill="#174391" d="M 241.5,297.5 C 241.5,298.5 241.5,299.5 241.5,300.5C 240.688,301.993 239.355,302.66 237.5,302.5C 236.274,302.48 235.274,302.147 234.5,301.5C 234.5,301.167 234.5,300.833 234.5,300.5C 236.5,300.5 238.5,300.5 240.5,300.5C 240.263,299.209 240.596,298.209 241.5,297.5 Z"/></g>
<g><path style="opacity:0.975" fill="#164aa8" d="M 339.5,297.5 C 340.404,298.209 340.737,299.209 340.5,300.5C 339.122,301.234 337.622,301.901 336,302.5C 335,301.167 334,301.167 333,302.5C 332.283,301.956 331.783,301.289 331.5,300.5C 334.167,300.5 336.833,300.5 339.5,300.5C 339.5,299.5 339.5,298.5 339.5,297.5 Z"/></g>
<g><path style="opacity:0.024" fill="#1c2a46" d="M 355.5,301.5 C 357.229,300.883 358.729,299.883 360,298.5C 365.603,285.714 361.437,280.048 347.5,281.5C 359.868,277.688 365.034,282.355 363,295.5C 361.849,299.876 359.349,301.876 355.5,301.5 Z"/></g>
<g><path style="opacity:0.065" fill="#182e50" d="M 379.5,299.5 C 381.284,299.893 382.95,300.559 384.5,301.5C 382.49,302.349 380.823,301.682 379.5,299.5 Z"/></g>
<g><path style="opacity:0.224" fill="#182d4e" d="M 415.5,300.5 C 416.609,300.557 417.609,300.89 418.5,301.5C 417.221,302.715 416.221,302.382 415.5,300.5 Z"/></g>
<g><path style="opacity:0.012" fill="#183159" d="M 181.5,298.5 C 183.483,299.471 185.483,300.471 187.5,301.5C 184.953,302.231 182.953,301.231 181.5,298.5 Z"/></g>
<g><path style="opacity:0.106" fill="#183159" d="M 198.5,300.5 C 197.828,301.267 196.995,301.934 196,302.5C 195.601,302.272 195.435,301.938 195.5,301.5C 196.209,300.596 197.209,300.263 198.5,300.5 Z"/></g>
<g><path style="opacity:0.128" fill="#172d4e" d="M 246.5,300.5 C 248.717,301.369 251.05,301.702 253.5,301.5C 252.551,302.152 251.385,302.486 250,302.5C 248.319,302.392 247.152,301.725 246.5,300.5 Z"/></g>
<g><path style="opacity:0.155" fill="#172f53" d="M 277.5,301.5 C 274.898,302.466 272.565,302.466 270.5,301.5C 270.811,300.522 271.478,299.855 272.5,299.5C 273.842,301.005 275.508,301.672 277.5,301.5 Z"/></g>
<g><path style="opacity:0.082" fill="#1b2c49" d="M 397.5,285.5 C 398.117,285.611 398.617,285.944 399,286.5C 399.667,290.833 399.667,295.167 399,299.5C 397.103,301.905 394.936,302.572 392.5,301.5C 394.03,300.933 395.53,300.267 397,299.5C 397.499,294.845 397.666,290.179 397.5,285.5 Z"/></g>
</svg>
