<?xml version="1.0" encoding="UTF-8"?>
<!DOCTYPE svg PUBLIC "-//W3C//DTD SVG 1.1//EN" "http://www.w3.org/Graphics/SVG/1.1/DTD/svg11.dtd">
<svg xmlns="http://www.w3.org/2000/svg" version="1.1" width="224px" height="225px" style="shape-rendering:geometricPrecision; text-rendering:geometricPrecision; image-rendering:optimizeQuality; fill-rule:evenodd; clip-rule:evenodd" xmlns:xlink="http://www.w3.org/1999/xlink">
<g><path style="opacity:0.997" fill="#0b0b0b" d="M 94.5,-0.5 C 94.8333,-0.5 95.1667,-0.5 95.5,-0.5C 95.8333,0.833333 96.1667,0.833333 96.5,-0.5C 105.5,-0.5 114.5,-0.5 123.5,-0.5C 178.216,8.54657 211.549,40.2132 223.5,94.5C 223.5,106.5 223.5,118.5 223.5,130.5C 211.349,183.319 178.682,214.653 125.5,224.5C 116.167,224.5 106.833,224.5 97.5,224.5C 43.8656,214.533 11.1989,182.866 -0.5,129.5C -0.5,117.833 -0.5,106.167 -0.5,94.5C 7.29467,55.5285 28.9613,27.0285 64.5,9C 74.4242,5.19327 84.4242,2.0266 94.5,-0.5 Z M 164.5,28.5 C 164.973,29.9063 165.973,30.573 167.5,30.5C 206.043,60.6383 218.21,99.305 204,146.5C 201.861,152.112 199.194,157.446 196,162.5C 181.427,150.711 165.093,142.044 147,136.5C 140.076,142.048 132.576,146.714 124.5,150.5C 116.876,151.398 109.209,151.731 101.5,151.5C 97.4755,149.98 93.4755,148.146 89.5,146C 84.9894,142.819 80.4894,139.652 76,136.5C 57.9065,142.044 41.5732,150.711 27,162.5C 22.9621,155.883 19.7954,148.883 17.5,141.5C 17.405,139.214 16.7384,137.214 15.5,135.5C 7.20207,87.5065 23.5354,50.6731 64.5,25C 98.4155,8.78598 131.749,9.95265 164.5,28.5 Z"/></g>
<g><path style="opacity:0.337" fill="#919191" d="M 164.5,28.5 C 166.027,28.427 167.027,29.0937 167.5,30.5C 165.973,30.573 164.973,29.9063 164.5,28.5 Z"/></g>
<g><path style="opacity:0.998" fill="#050505" d="M 120.5,39.5 C 121.78,40.9313 123.447,41.5979 125.5,41.5C 143.128,48.0669 153.128,60.7336 155.5,79.5C 155.24,85.172 154.907,90.8387 154.5,96.5C 151.065,114.533 141.732,128.699 126.5,139C 116.512,143.665 106.512,143.665 96.5,139C 81.2684,128.699 71.935,114.533 68.5,96.5C 67.9682,90.8477 67.6349,85.181 67.5,79.5C 70.2087,59.9516 80.8753,46.785 99.5,40C 106.478,38.2702 113.478,38.1035 120.5,39.5 Z"/></g>
<g><path style="opacity:0.376" fill="#828282" d="M 120.5,39.5 C 122.553,39.4021 124.22,40.0687 125.5,41.5C 123.447,41.5979 121.78,40.9313 120.5,39.5 Z"/></g>
<g><path style="opacity:0.416" fill="#8e8e8e" d="M 155.5,79.5 C 156.798,85.2333 156.465,90.8999 154.5,96.5C 154.907,90.8387 155.24,85.172 155.5,79.5 Z"/></g>
<g><path style="opacity:0.522" fill="#8e8e8e" d="M 67.5,79.5 C 67.6349,85.181 67.9682,90.8477 68.5,96.5C 66.4503,90.9104 66.117,85.2437 67.5,79.5 Z"/></g>
<g><path style="opacity:0.471" fill="#888888" d="M 15.5,135.5 C 16.7384,137.214 17.405,139.214 17.5,141.5C 15.9261,139.898 15.2594,137.898 15.5,135.5 Z"/></g>
<g><path style="opacity:0.753" fill="#8c8c8c" d="M 124.5,150.5 C 124.082,151.222 123.416,151.722 122.5,152C 115.321,152.821 108.321,152.655 101.5,151.5C 109.209,151.731 116.876,151.398 124.5,150.5 Z"/></g>
</svg>
